<svg width="902" height="902" xmlns="http://www.w3.org/2000/svg" style="vector-effect: non-scaling-stroke;" stroke="null">

 <g stroke="null">
  <title stroke="null">background</title>
  <rect stroke="null" fill="none" id="canvas_background" height="904" width="904" y="-1" x="-1"/>
 </g>
 <g stroke="null">
  <title stroke="null">Layer 1</title>
  <ellipse stroke="#ff3621" ry="410.992304" rx="410.992304" id="svg_19" cy="450.999996" cx="450.999988" stroke-width="15" fill="none"/>
  <path stroke="null" fill="#ff3621" id="svg_12" d="m677.977353,217.690393c-1.6,-0.1 -3.3,-0.3 -5.1,-0.4c-35.6,-2.9 -109.6,-9.1 -172.6,54l-76.9,76.9l-114.6,25l-93.8,93.8l81.9,21.2l16.7,16.7l-52.5,76.2l24.9,24.9l-14.3,14.3l10.6,10.6l14.3,-14.3l27.4,27.4l73.9,-54.9l16.6,16.6l21.2,81.9l93.8,-93.8l25,-114.6l76.9,-76.9c63,-63 56.9,-137 54,-172.6c-0.1,-1.8 -0.3,-3.5 -0.4,-5.1l-0.5,-6.4l-3.25,-0.25l-3.25,-0.25zm-352.5,406.5l-18.3,-18.3l24.7,-24.7l-10.6,-10.6l-24.7,24.7l-16.1,-16.1l43.9,-63.6l62.8,62.8l-61.7,45.8zm-81.3,-165.2l72.2,-72.2l87.5,-19.1l-105.4,105.3l-54.3,-14zm194.5,114.6l-17.5,17.6l-109.8,-109.9l17.5,-17.5l109.8,109.8zm77.1,12.7l-72.1,72.1l-14,-54.4l105.3,-105.3l-19.2,87.6zm-66.4,-23.3l-109.9,-109.8l166.1,-166.1l49.6,49.6l-36.1,36.1c-18.7,-13.6 -45,-12 -61.9,4.9c-16.8,16.8 -18.5,43.2 -4.9,61.9l-31.3,31.3l10.6,10.6l31.3,-31.3c18.7,13.6 45,11.9 61.9,-4.9c16.8,-16.8 18.5,-43.2 4.9,-61.9l36.1,-36.1l49.6,49.6l-166,166.1zm64.8,-174.6c12.8,12.8 12.8,33.6 0,46.4c-12.8,12.8 -33.6,12.8 -46.4,0c-12.8,-12.8 -12.8,-33.6 0,-46.4c12.8,-12.8 33.6,-12.8 46.4,0zm151.7,-75.5c-6.1,23.9 -17.9,49.4 -40,73.3l-109.6,-109.6c23.9,-22 49.4,-33.9 73.3,-40l76.3,76.3zm3.6,-17.6l-62.3,-62.2c25.4,-3.9 47.9,-2.2 63.2,-0.9c1.3,15.3 3,37.8 -0.9,63.1z" class="st0"/>
  <rect stroke="null" transform="rotate(45 248.2519378662108,654.6640625) " id="svg_20" height="61.650843" width="15.267173" y="623.838747" x="240.618339" fill-opacity="null" stroke-opacity="null" stroke-width="null" fill="#ff3621"/>
  <rect stroke="null" transform="rotate(45 211.915985107422,691.6107177734375) " id="svg_21" height="21.059665" width="15.267173" y="681.080864" x="204.282393" fill-opacity="null" stroke-opacity="null" stroke-width="null" fill="#ff3621"/>
 </g>
</svg>