<svg xmlns="http://www.w3.org/2000/svg" xmlns:xlink="http://www.w3.org/1999/xlink" xmlns:lucid="lucid" width="2377.61" height="640"><g transform="translate(697.6123046875 -80)" lucid:page-tab-id="..YJrkmzdAHQ"><path d="M-1806.87 0h3677.74v1322.83h-3677.74z" fill="#fff"/><path d="M460 106a6 6 0 0 1 6-6h308a6 6 0 0 1 6 6v588a6 6 0 0 1-6 6H466a6 6 0 0 1-6-6z" fill="#fff" fill-opacity="0"/><path d="M482.88 100.07h11.9m11.87 0h11.88m11.88 0h11.9m11.88-.02h11.88m11.88 0h11.9m11.87 0h11.9m11.87 0l11.88-.02m11.9 0h11.87m11.88 0h11.88m11.9 0h11.87m11.88-.02h11.88m11.9 0h11.88m11.88 0H774l.94.07.9.22.88.35.8.5.72.6.6.72.5.8.37.88.23.9v5.9m0 11.78v11.78m0 11.8v11.77m0 11.77v11.78m0 11.78v11.78m0 11.78v11.78m0 11.78v11.78m.02 11.77v11.78m0 11.78v11.78m0 11.8v11.77m0 11.78v11.78m0 11.77v11.78m0 11.78v11.78m0 11.78l.02 11.78m0 11.78v11.78m0 11.78v11.77m0 11.8v11.77m0 11.78v11.78m0 11.78V535m0 11.77v11.77m0 11.78l.02 11.78m0 11.78v11.78m0 11.78v11.78m0 11.78v11.77m0 11.78v11.78m0 11.78v5.9l-.07.94-.22.9-.35.88-.5.8-.6.72-.72.6-.8.5-.88.37-.9.23H769m-11.88 0h-11.9m-11.87 0h-11.88m-11.88 0h-11.9m-11.88.02h-11.88m-11.88 0h-11.9m-11.87 0h-11.9m-11.87 0l-11.88.02m-11.9 0H578.9m-11.88 0h-11.88m-11.9 0h-11.87m-11.88.02H507.6m-11.9 0h-11.88m-11.88 0H466l-.94-.07-.9-.22-.88-.35-.8-.5-.72-.6-.6-.72-.5-.8-.37-.88-.23-.9v-5.9m0-11.78V665.5m0-11.8v-11.77m0-11.77v-11.78m0-11.78v-11.78m0-11.78v-11.78m0-11.78V547.7m-.02-11.77v-11.78m0-11.78V500.6m0-11.8v-11.77m0-11.78v-11.78m0-11.77v-11.78m0-11.78v-11.78m0-11.78l-.02-11.78m0-11.78v-11.78m0-11.78V335.7m0-11.8v-11.77m0-11.78v-11.78m0-11.78V265m0-11.77v-11.77m0-11.78L460 217.9m0-11.78v-11.78m0-11.78v-11.78m0-11.78v-11.77m0-11.78v-11.78m0-11.78V106l.07-.94.22-.9.35-.88.5-.8.6-.72.72-.6.8-.5.88-.37.9-.23H471" stroke="#147eba" stroke-width="3" fill="none"/><use xlink:href="#a" transform="matrix(1,0,0,1,460,120) translate(138.396484375 14.396484375)"/><path d="M880 106a6 6 0 0 1 6-6h308a6 6 0 0 1 6 6v588a6 6 0 0 1-6 6H886a6 6 0 0 1-6-6z" fill="#fff" fill-opacity="0"/><path d="M902.88 100.07h11.9m11.87 0h11.88m11.88 0h11.9m11.88-.02h11.88m11.88 0h11.9m11.87 0h11.9m11.87 0l11.88-.02m11.9 0h11.87m11.88 0h11.88m11.9 0h11.87m11.88-.02h11.88m11.9 0h11.88m11.88 0h5.94l.94.07.9.22.88.35.8.5.72.6.6.72.5.8.37.88.23.9v5.9m0 11.78v11.78m0 11.8v11.77m0 11.77v11.78m0 11.78v11.78m0 11.78v11.78m0 11.78v11.78m.02 11.77v11.78m0 11.78v11.78m0 11.8v11.77m0 11.78v11.78m0 11.77v11.78m0 11.78v11.78m0 11.78l.02 11.78m0 11.78v11.78m0 11.78v11.77m0 11.8v11.77m0 11.78v11.78m0 11.78V535m0 11.77v11.77m0 11.78l.02 11.78m0 11.78v11.78m0 11.78v11.78m0 11.78v11.77m0 11.78v11.78m0 11.78v5.9l-.07.94-.22.9-.35.88-.5.8-.6.72-.72.6-.8.5-.88.37-.9.23H1189m-11.88 0h-11.9m-11.87 0h-11.88m-11.88 0h-11.9m-11.88.02h-11.88m-11.88 0h-11.9m-11.87 0h-11.9m-11.87 0l-11.88.02m-11.9 0H998.9m-11.88 0h-11.88m-11.9 0h-11.87m-11.88.02H927.6m-11.9 0h-11.88m-11.88 0H886l-.94-.07-.9-.22-.88-.35-.8-.5-.72-.6-.6-.72-.5-.8-.37-.88-.23-.9v-5.9m0-11.78V665.5m0-11.8v-11.77m0-11.77v-11.78m0-11.78v-11.78m0-11.78v-11.78m0-11.78V547.7m-.02-11.77v-11.78m0-11.78V500.6m0-11.8v-11.77m0-11.78v-11.78m0-11.77v-11.78m0-11.78v-11.78m0-11.78l-.02-11.78m0-11.78v-11.78m0-11.78V335.7m0-11.8v-11.77m0-11.78v-11.78m0-11.78V265m0-11.77v-11.77m0-11.78L880 217.9m0-11.78v-11.78m0-11.78v-11.78m0-11.78v-11.77m0-11.78v-11.78m0-11.78V106l.07-.94.22-.9.35-.88.5-.8.6-.72.72-.6.8-.5.88-.37.9-.23H891" stroke="#147eba" stroke-width="3" fill="none"/><use xlink:href="#b" transform="matrix(1,0,0,1,880,120) translate(122.19384765625 14.396484375)"/><path d="M1300 106a6 6 0 0 1 6-6h308a6 6 0 0 1 6 6v588a6 6 0 0 1-6 6h-308a6 6 0 0 1-6-6z" fill="#fff" fill-opacity="0"/><path d="M1322.88 100.07h11.9m11.87 0h11.88m11.88 0h11.9m11.88-.02h11.88m11.88 0h11.9m11.87 0h11.9m11.87 0l11.88-.02m11.9 0h11.87m11.88 0h11.88m11.9 0h11.87m11.88-.02h11.88m11.9 0h11.88m11.88 0h5.94l.94.07.9.22.88.35.8.5.72.6.6.72.5.8.37.88.23.9v5.9m0 11.78v11.78m0 11.8v11.77m0 11.77v11.78m0 11.78v11.78m0 11.78v11.78m0 11.78v11.78m.02 11.77v11.78m0 11.78v11.78m0 11.8v11.77m0 11.78v11.78m0 11.77v11.78m0 11.78v11.78m0 11.78l.02 11.78m0 11.78v11.78m0 11.78v11.77m0 11.8v11.77m0 11.78v11.78m0 11.78V535m0 11.77v11.77m0 11.78l.02 11.78m0 11.78v11.78m0 11.78v11.78m0 11.78v11.77m0 11.78v11.78m0 11.78v5.9l-.07.94-.22.9-.35.88-.5.8-.6.72-.72.6-.8.5-.88.37-.9.23H1609m-11.88 0h-11.9m-11.87 0h-11.88m-11.88 0h-11.9m-11.88.02h-11.88m-11.88 0h-11.9m-11.87 0h-11.9m-11.87 0l-11.88.02m-11.9 0h-11.87m-11.88 0h-11.88m-11.9 0h-11.87m-11.88.02h-11.88m-11.9 0h-11.88m-11.88 0H1306l-.94-.07-.9-.22-.88-.35-.8-.5-.72-.6-.6-.72-.5-.8-.37-.88-.23-.9v-5.9m0-11.78V665.5m0-11.8v-11.77m0-11.77v-11.78m0-11.78v-11.78m0-11.78v-11.78m0-11.78V547.7m-.02-11.77v-11.78m0-11.78V500.6m0-11.8v-11.77m0-11.78v-11.78m0-11.77v-11.78m0-11.78v-11.78m0-11.78l-.02-11.78m0-11.78v-11.78m0-11.78V335.7m0-11.8v-11.77m0-11.78v-11.78m0-11.78V265m0-11.77v-11.77m0-11.78l-.02-11.78m0-11.78v-11.78m0-11.78v-11.78m0-11.78v-11.77m0-11.78v-11.78m0-11.78V106l.07-.94.22-.9.35-.88.5-.8.6-.72.72-.6.8-.5.88-.37.9-.23h5.95" stroke="#147eba" stroke-width="3" fill="none"/><use xlink:href="#c" transform="matrix(1,0,0,1,1300,120) translate(138.396484375 14.396484375)"/><path d="M80 166a6 6 0 0 1 6-6h1568a6 6 0 0 1 6 6v148a6 6 0 0 1-6 6H86a6 6 0 0 1-6-6z" fill="#c7e8ac" fill-opacity=".26"/><path d="M103.16 160.07h12.07m12.07 0h12.07m12.07 0h12.07m12.08 0h12.07m12.06 0h12.08m12.07 0h12.07m12.07 0h12.06m12.07 0h12.07m12.06 0h12.07m12.07 0h12.07m12.07 0h12.07m12.08 0h12.07m12.06 0h12.08m12.07 0h12.07m12.07 0h12.06m12.07 0h12.07m12.06-.02h12.07m12.07 0h12.07m12.07 0h12.07m12.08 0h12.07m12.06 0H598m12.07 0h12.07m12.07 0h12.06m12.07 0h12.07m12.06 0h12.07m12.07 0h12.07m12.07 0h12.07m12.08 0h12.07m12.07 0h12.06m12.07 0h12.07m12.07 0h12.06m12.07 0h12.07m12.07 0h12.06m12.07 0l12.07-.02m12.07 0h12.07m12.08 0h12.07m12.07 0h12.06m12.07 0h12.07m12.07 0h12.06m12.07 0h12.07m12.07 0h12.06m12.07 0h12.07m12.07 0H1129m12.08 0h12.07m12.07 0h12.06m12.07 0h12.07m12.07 0h12.06m12.07 0h12.07m12.07 0h12.06m12.07 0h12.07m12.07 0h12.07m12.08 0l12.07-.02m12.07 0h12.06m12.07 0h12.07m12.07 0h12.06m12.07 0h12.07m12.07 0h12.06m12.07 0h12.07m12.07 0h12.07m12.08 0h12.07m12.07 0h12.06m12.07 0h12.07m12.07 0h12.06m12.07 0h12.07m12.07 0h6.03l.94.07.9.22.88.35.8.5.72.6.6.72.5.8.37.88.23.9v6.22m0 12.4v12.42m.02 12.4v12.4m0 12.42l.02 12.42m0 12.4v12.42m0 12.4l.02 12.42m0 12.4V314l-.07.94-.22.9-.35.88-.5.8-.6.72-.72.6-.8.5-.88.37-.9.23h-6.05m-12.06 0h-12.07m-12.07 0h-12.07m-12.07 0h-12.07m-12.08 0h-12.07m-12.06 0h-12.08m-12.07 0h-12.07m-12.07 0h-12.06m-12.07 0h-12.07m-12.06 0h-12.07m-12.07 0h-12.07m-12.07 0h-12.07m-12.08 0h-12.07m-12.06 0h-12.08m-12.07 0h-12.07m-12.07 0h-12.06m-12.07 0h-12.07m-12.06.02h-12.07m-12.07 0h-12.07m-12.07 0h-12.07m-12.08 0h-12.07m-12.06 0H1142m-12.07 0h-12.07m-12.07 0h-12.06m-12.07 0h-12.07m-12.06 0h-12.07m-12.07 0h-12.07m-12.07 0H997.2m-12.08 0h-12.07m-12.07 0h-12.06m-12.07 0h-12.07m-12.07 0h-12.06m-12.07 0H876.5m-12.07 0h-12.06m-12.07 0l-12.07.02m-12.07 0H804.1m-12.08 0h-12.07m-12.07 0h-12.06m-12.07 0h-12.07m-12.07 0h-12.06m-12.07 0H683.4m-12.07 0h-12.06m-12.07 0h-12.07m-12.07 0H611m-12.08 0h-12.07m-12.07 0h-12.06m-12.07 0h-12.07m-12.07 0h-12.06m-12.07 0H490.3m-12.07 0h-12.06m-12.07 0h-12.07m-12.07 0H417.9m-12.08 0l-12.07.02m-12.07 0h-12.06m-12.07 0h-12.07m-12.07 0h-12.06m-12.07 0H297.2m-12.07 0h-12.06M261 320h-12.07m-12.07 0H224.8m-12.08 0h-12.07m-12.07 0h-12.06m-12.07 0h-12.07m-12.07 0h-12.06m-12.07 0H104.1m-12.07 0H86l-.94-.07-.9-.22-.88-.35-.8-.5-.72-.6-.6-.72-.5-.8-.37-.88-.23-.9v-6.22m0-12.4V283.9m-.02-12.4v-12.4m0-12.42l-.02-12.42m0-12.4v-12.42m0-12.4L80 184.6m0-12.4V166l.07-.94.22-.9.35-.88.5-.8.6-.72.72-.6.8-.5.88-.37.9-.23h6.05" stroke="#147eba" stroke-width="3" fill="none"/><path d="M80 346a6 6 0 0 1 6-6h1568a6 6 0 0 1 6 6v148a6 6 0 0 1-6 6H86a6 6 0 0 1-6-6z" fill="#ffbbb1" fill-opacity=".26"/><path d="M103.16 340.07h12.07m12.07 0h12.07m12.07 0h12.07m12.08 0h12.07m12.06 0h12.08m12.07 0h12.07m12.07 0h12.06m12.07 0h12.07m12.06 0h12.07m12.07 0h12.07m12.07 0h12.07m12.08 0h12.07m12.06 0h12.08m12.07 0h12.07m12.07 0h12.06m12.07 0h12.07m12.06-.02h12.07m12.07 0h12.07m12.07 0h12.07m12.08 0h12.07m12.06 0H598m12.07 0h12.07m12.07 0h12.06m12.07 0h12.07m12.06 0h12.07m12.07 0h12.07m12.07 0h12.07m12.08 0h12.07m12.07 0h12.06m12.07 0h12.07m12.07 0h12.06m12.07 0h12.07m12.07 0h12.06m12.07 0l12.07-.02m12.07 0h12.07m12.08 0h12.07m12.07 0h12.06m12.07 0h12.07m12.07 0h12.06m12.07 0h12.07m12.07 0h12.06m12.07 0h12.07m12.07 0H1129m12.08 0h12.07m12.07 0h12.06m12.07 0h12.07m12.07 0h12.06m12.07 0h12.07m12.07 0h12.06m12.07 0h12.07m12.07 0h12.07m12.08 0l12.07-.02m12.07 0h12.06m12.07 0h12.07m12.07 0h12.06m12.07 0h12.07m12.07 0h12.06m12.07 0h12.07m12.07 0h12.07m12.08 0h12.07m12.07 0h12.06m12.07 0h12.07m12.07 0h12.06m12.07 0h12.07m12.07 0h6.03l.94.07.9.22.88.35.8.5.72.6.6.72.5.8.37.88.23.9v6.22m0 12.4v12.42m.02 12.4v12.4m0 12.42l.02 12.42m0 12.4v12.42m0 12.4l.02 12.42m0 12.4V494l-.07.94-.22.9-.35.88-.5.8-.6.72-.72.6-.8.5-.88.37-.9.23h-6.05m-12.06 0h-12.07m-12.07 0h-12.07m-12.07 0h-12.07m-12.08 0h-12.07m-12.06 0h-12.08m-12.07 0h-12.07m-12.07 0h-12.06m-12.07 0h-12.07m-12.06 0h-12.07m-12.07 0h-12.07m-12.07 0h-12.07m-12.08 0h-12.07m-12.06 0h-12.08m-12.07 0h-12.07m-12.07 0h-12.06m-12.07 0h-12.07m-12.06.02h-12.07m-12.07 0h-12.07m-12.07 0h-12.07m-12.08 0h-12.07m-12.06 0H1142m-12.07 0h-12.07m-12.07 0h-12.06m-12.07 0h-12.07m-12.06 0h-12.07m-12.07 0h-12.07m-12.07 0H997.2m-12.08 0h-12.07m-12.07 0h-12.06m-12.07 0h-12.07m-12.07 0h-12.06m-12.07 0H876.5m-12.07 0h-12.06m-12.07 0l-12.07.02m-12.07 0H804.1m-12.08 0h-12.07m-12.07 0h-12.06m-12.07 0h-12.07m-12.07 0h-12.06m-12.07 0H683.4m-12.07 0h-12.06m-12.07 0h-12.07m-12.07 0H611m-12.08 0h-12.07m-12.07 0h-12.06m-12.07 0h-12.07m-12.07 0h-12.06m-12.07 0H490.3m-12.07 0h-12.06m-12.07 0h-12.07m-12.07 0H417.9m-12.08 0l-12.07.02m-12.07 0h-12.06m-12.07 0h-12.07m-12.07 0h-12.06m-12.07 0H297.2m-12.07 0h-12.06M261 500h-12.07m-12.07 0H224.8m-12.08 0h-12.07m-12.07 0h-12.06m-12.07 0h-12.07m-12.07 0h-12.06m-12.07 0H104.1m-12.07 0H86l-.94-.07-.9-.22-.88-.35-.8-.5-.72-.6-.6-.72-.5-.8-.37-.88-.23-.9v-6.22m0-12.4V463.9m-.02-12.4v-12.4m0-12.42l-.02-12.42m0-12.4v-12.42m0-12.4L80 364.6m0-12.4V346l.07-.94.22-.9.35-.88.5-.8.6-.72.72-.6.8-.5.88-.37.9-.23h6.05" stroke="#147eba" stroke-width="3" fill="none"/><path d="M80 526a6 6 0 0 1 6-6h1568a6 6 0 0 1 6 6v148a6 6 0 0 1-6 6H86a6 6 0 0 1-6-6z" fill="#c1e4f7" fill-opacity=".26"/><path d="M103.16 520.07h12.07m12.07 0h12.07m12.07 0h12.07m12.08 0h12.07m12.06 0h12.08m12.07 0h12.07m12.07 0h12.06m12.07 0h12.07m12.06 0h12.07m12.07 0h12.07m12.07 0h12.07m12.08 0h12.07m12.06 0h12.08m12.07 0h12.07m12.07 0h12.06m12.07 0h12.07m12.06-.02h12.07m12.07 0h12.07m12.07 0h12.07m12.08 0h12.07m12.06 0H598m12.07 0h12.07m12.07 0h12.06m12.07 0h12.07m12.06 0h12.07m12.07 0h12.07m12.07 0h12.07m12.08 0h12.07m12.07 0h12.06m12.07 0h12.07m12.07 0h12.06m12.07 0h12.07m12.07 0h12.06m12.07 0l12.07-.02m12.07 0h12.07m12.08 0h12.07m12.07 0h12.06m12.07 0h12.07m12.07 0h12.06m12.07 0h12.07m12.07 0h12.06m12.07 0h12.07m12.07 0H1129m12.08 0h12.07m12.07 0h12.06m12.07 0h12.07m12.07 0h12.06m12.07 0h12.07m12.07 0h12.06m12.07 0h12.07m12.07 0h12.07m12.08 0l12.07-.02m12.07 0h12.06m12.07 0h12.07m12.07 0h12.06m12.07 0h12.07m12.07 0h12.06m12.07 0h12.07m12.07 0h12.07m12.08 0h12.07m12.07 0h12.06m12.07 0h12.07m12.07 0h12.06m12.07 0h12.07m12.07 0h6.03l.94.07.9.22.88.35.8.5.72.6.6.72.5.8.37.88.23.9v6.22m0 12.4v12.42m.02 12.4v12.4m0 12.42l.02 12.42m0 12.4v12.42m0 12.4l.02 12.42m0 12.4V674l-.07.94-.22.9-.35.88-.5.8-.6.72-.72.6-.8.5-.88.37-.9.23h-6.05m-12.06 0h-12.07m-12.07 0h-12.07m-12.07 0h-12.07m-12.08 0h-12.07m-12.06 0h-12.08m-12.07 0h-12.07m-12.07 0h-12.06m-12.07 0h-12.07m-12.06 0h-12.07m-12.07 0h-12.07m-12.07 0h-12.07m-12.08 0h-12.07m-12.06 0h-12.08m-12.07 0h-12.07m-12.07 0h-12.06m-12.07 0h-12.07m-12.06.02h-12.07m-12.07 0h-12.07m-12.07 0h-12.07m-12.08 0h-12.07m-12.06 0H1142m-12.07 0h-12.07m-12.07 0h-12.06m-12.07 0h-12.07m-12.06 0h-12.07m-12.07 0h-12.07m-12.07 0H997.2m-12.08 0h-12.07m-12.07 0h-12.06m-12.07 0h-12.07m-12.07 0h-12.06m-12.07 0H876.5m-12.07 0h-12.06m-12.07 0l-12.07.02m-12.07 0H804.1m-12.08 0h-12.07m-12.07 0h-12.06m-12.07 0h-12.07m-12.07 0h-12.06m-12.07 0H683.4m-12.07 0h-12.06m-12.07 0h-12.07m-12.07 0H611m-12.08 0h-12.07m-12.07 0h-12.06m-12.07 0h-12.07m-12.07 0h-12.06m-12.07 0H490.3m-12.07 0h-12.06m-12.07 0h-12.07m-12.07 0H417.9m-12.08 0l-12.07.02m-12.07 0h-12.06m-12.07 0h-12.07m-12.07 0h-12.06m-12.07 0H297.2m-12.07 0h-12.06M261 680h-12.07m-12.07 0H224.8m-12.08 0h-12.07m-12.07 0h-12.06m-12.07 0h-12.07m-12.07 0h-12.06m-12.07 0H104.1m-12.07 0H86l-.94-.07-.9-.22-.88-.35-.8-.5-.72-.6-.6-.72-.5-.8-.37-.88-.23-.9v-6.22m0-12.4V643.9m-.02-12.4v-12.4m0-12.42l-.02-12.42m0-12.4v-12.42m0-12.4L80 544.6m0-12.4V526l.07-.94.22-.9.35-.88.5-.8.6-.72.72-.6.8-.5.88-.37.9-.23h6.05" stroke="#147eba" stroke-width="3" fill="none"/><path d="M-520 106a6 6 0 0 1 6-6H14a6 6 0 0 1 6 6v588a6 6 0 0 1-6 6h-528a6 6 0 0 1-6-6z" fill="#fff"/><path d="M-496.9 100.07h12m12.04 0h12.02m12.02 0h12.02m12.02 0h12.02m12.02 0h12.03m12-.02h12.03m12.02 0h12.02m12.02 0h12m12.03 0h12.03m12.02 0h12.02m12.02 0h12.02m12.02-.02h12.02m12.03 0h12.03m12.02 0h12.02m12.02 0h12m12.03 0h12.02m12.03 0h12.02m12.02-.02h12.02m12.02 0h12.02m12.02 0h12.03m12.02 0h12.02M8 100h6l.94.07.9.22.88.35.8.5.72.6.6.72.5.8.37.88.23.9v5.9m0 11.78v11.78m0 11.8v11.77m0 11.77v11.78m0 11.78v11.78m0 11.78v11.78m0 11.78v11.78m.02 11.77v11.78m0 11.78v11.78m0 11.8v11.77m0 11.78v11.78m0 11.77v11.78m0 11.78v11.78m0 11.78l.02 11.78m0 11.78v11.78m0 11.78v11.77m0 11.8v11.77m0 11.78v11.78m0 11.78V535m0 11.77v11.77m0 11.78L20 582.1m0 11.78v11.78m0 11.78v11.78M20 641v11.77m0 11.78v11.78m0 11.78v5.9l-.07.94-.22.9-.35.88-.5.8-.6.72-.72.6-.8.5-.88.37-.9.23H8.92m-12.02 0h-12m-12.04 0h-12.02m-12.02 0H-63.2m-12.02 0h-12.02m-12.02 0h-12.03m-12 .02h-12.03m-12.02 0h-12.02m-12.02 0h-12m-12.03 0h-12.03m-12.02 0h-12.02m-12.02 0h-12.02m-12.02.02h-12.02m-12.03 0h-12.03m-12.02 0h-12.02m-12.02 0h-12m-12.03 0h-12.02m-12.03 0h-12.02m-12.02.02h-12.02m-12.02 0h-12.02m-12.02 0h-12.03m-12.02 0h-12.02m-12.02 0h-6l-.94-.07-.9-.22-.88-.35-.8-.5-.72-.6-.6-.72-.5-.8-.37-.88-.23-.9v-5.9m0-11.78V665.5m0-11.8v-11.77m0-11.77v-11.78m0-11.78v-11.78m0-11.78v-11.78m0-11.78V547.7m-.02-11.77v-11.78m0-11.78V500.6m0-11.8v-11.77m0-11.78v-11.78m0-11.77v-11.78m0-11.78v-11.78m0-11.78l-.02-11.78m0-11.78v-11.78m0-11.78V335.7m0-11.8v-11.77m0-11.78v-11.78m0-11.78V265m0-11.77v-11.77m0-11.78l-.02-11.78m0-11.78v-11.78m0-11.78v-11.78m0-11.78v-11.77m0-11.78v-11.78m0-11.78V106l.07-.94.22-.9.35-.88.5-.8.6-.72.72-.6.8-.5.88-.37.9-.23h6.02" stroke="#147eba" stroke-width="3" fill="none"/><use xlink:href="#d" transform="matrix(1,0,0,1,-520,120) translate(210.59033203125 14.396484375)"/><use xlink:href="#e" transform="matrix(1,0,0,1,-520,120) translate(242.99560546875 14.396484375)"/><path d="M480 186a6 6 0 0 1 6-6h268a6 6 0 0 1 6 6v108a6 6 0 0 1-6 6H486a6 6 0 0 1-6-6z" stroke="#5e5e5e" stroke-width="3" fill="#fff"/><use xlink:href="#f" transform="matrix(1,0,0,1,492,192) translate(0 17.7734375)"/><path d="M143.06 186a6 6 0 0 1 6-6H365.9a6 6 0 0 1 6 6v108a6 6 0 0 1-6 6H149.05a6 6 0 0 1-6-6z" stroke="#5e5e5e" stroke-width="3" fill="#fff"/><use xlink:href="#g" transform="matrix(1,0,0,1,148.0574324324324,185) translate(16.15147569444443 62.4609375)"/><use xlink:href="#h" transform="matrix(1,0,0,1,148.0574324324324,185) translate(82.82899305555554 62.4609375)"/><path d="M143.06 366a6 6 0 0 1 6-6H365.9a6 6 0 0 1 6 6v108a6 6 0 0 1-6 6H149.05a6 6 0 0 1-6-6z" stroke="#5e5e5e" stroke-width="3" fill="#fff"/><use xlink:href="#i" transform="matrix(1,0,0,1,148.0574324324324,365) translate(2.8159722222222 62.4609375)"/><use xlink:href="#j" transform="matrix(1,0,0,1,148.0574324324324,365) translate(149.50651041666669 62.4609375)"/><path d="M530 366a6 6 0 0 1 6-6h78a6 6 0 0 1 6 6v48a6 6 0 0 1-6 6h-78a6 6 0 0 1-6-6z" stroke="#5e5e5e" stroke-width="3" fill="#fff"/><use xlink:href="#k" transform="matrix(1,0,0,1,542,372) translate(6.328993055555557 24.5234375)"/><path d="M575 426a6 6 0 0 1 6-6h78a6 6 0 0 1 6 6v48a6 6 0 0 1-6 6h-78a6 6 0 0 1-6-6z" stroke="#5e5e5e" stroke-width="3" fill="#fff"/><use xlink:href="#k" transform="matrix(1,0,0,1,587,432) translate(6.328993055555557 24.5234375)"/><path d="M620 366a6 6 0 0 1 6-6h78a6 6 0 0 1 6 6v48a6 6 0 0 1-6 6h-78a6 6 0 0 1-6-6z" stroke="#5e5e5e" stroke-width="3" fill="#fff"/><use xlink:href="#k" transform="matrix(1,0,0,1,632,372) translate(6.328993055555557 24.5234375)"/><path d="M950 366a6 6 0 0 1 6-6h78a6 6 0 0 1 6 6v48a6 6 0 0 1-6 6h-78a6 6 0 0 1-6-6z" stroke="#5e5e5e" stroke-width="3" fill="#fff"/><use xlink:href="#k" transform="matrix(1,0,0,1,962,372) translate(6.328993055555557 24.5234375)"/><path d="M995 426a6 6 0 0 1 6-6h78a6 6 0 0 1 6 6v48a6 6 0 0 1-6 6h-78a6 6 0 0 1-6-6z" stroke="#5e5e5e" stroke-width="3" fill="#fff"/><use xlink:href="#k" transform="matrix(1,0,0,1,1007,432) translate(6.328993055555557 24.5234375)"/><path d="M1040 366a6 6 0 0 1 6-6h78a6 6 0 0 1 6 6v48a6 6 0 0 1-6 6h-78a6 6 0 0 1-6-6z" stroke="#5e5e5e" stroke-width="3" fill="#fff"/><use xlink:href="#k" transform="matrix(1,0,0,1,1052,372) translate(6.328993055555557 24.5234375)"/><path d="M1370 366a6 6 0 0 1 6-6h78a6 6 0 0 1 6 6v48a6 6 0 0 1-6 6h-78a6 6 0 0 1-6-6z" stroke="#5e5e5e" stroke-width="3" fill="#fff"/><use xlink:href="#k" transform="matrix(1,0,0,1,1382,372) translate(6.328993055555557 24.5234375)"/><path d="M1415 426a6 6 0 0 1 6-6h78a6 6 0 0 1 6 6v48a6 6 0 0 1-6 6h-78a6 6 0 0 1-6-6z" stroke="#5e5e5e" stroke-width="3" fill="#fff"/><use xlink:href="#k" transform="matrix(1,0,0,1,1427,432) translate(6.328993055555557 24.5234375)"/><path d="M1460 366a6 6 0 0 1 6-6h78a6 6 0 0 1 6 6v48a6 6 0 0 1-6 6h-78a6 6 0 0 1-6-6z" stroke="#5e5e5e" stroke-width="3" fill="#fff"/><use xlink:href="#k" transform="matrix(1,0,0,1,1472,372) translate(6.328993055555557 24.5234375)"/><path d="M143.06 546a6 6 0 0 1 6-6H365.9a6 6 0 0 1 6 6v108a6 6 0 0 1-6 6H149.05a6 6 0 0 1-6-6z" stroke="#5e5e5e" stroke-width="3" fill="#fff"/><use xlink:href="#l" transform="matrix(1,0,0,1,148.0574324324324,545) translate(22.81922743055557 52.1484375)"/><use xlink:href="#m" transform="matrix(1,0,0,1,148.0574324324324,545) translate(42.822482638888914 74.37065972222221)"/><path d="M520 546a6 6 0 0 1 6-6h78a6 6 0 0 1 6 6v48a6 6 0 0 1-6 6h-78a6 6 0 0 1-6-6z" stroke="#5e5e5e" stroke-width="3" fill="#fff"/><use xlink:href="#k" transform="matrix(1,0,0,1,532,552) translate(6.328993055555557 24.5234375)"/><path d="M565 606a6 6 0 0 1 6-6h78a6 6 0 0 1 6 6v48a6 6 0 0 1-6 6h-78a6 6 0 0 1-6-6z" stroke="#5e5e5e" stroke-width="3" fill="#fff"/><use xlink:href="#k" transform="matrix(1,0,0,1,577,612) translate(6.328993055555557 24.5234375)"/><path d="M610 546a6 6 0 0 1 6-6h78a6 6 0 0 1 6 6v48a6 6 0 0 1-6 6h-78a6 6 0 0 1-6-6z" stroke="#5e5e5e" stroke-width="3" fill="#fff"/><use xlink:href="#k" transform="matrix(1,0,0,1,622,552) translate(6.328993055555557 24.5234375)"/><path d="M515.54 570h-31a6 6 0 0 0-6 6v48a6 6 0 0 0 6 6h52.02" stroke="#5e5e5e" stroke-width="6" fill="none"/><path d="M518.54 573h-3.08v-6h3.07z" stroke="#5e5e5e" stroke-width=".05" fill="#5e5e5e"/><path d="M553.83 630l-14.27 4.64v-9.28z" stroke="#5e5e5e" stroke-width="6" fill="#5e5e5e"/><path d="M659.46 630h76a6 6 0 0 0 6-6v-48a6 6 0 0 0-6-6h-7.02" stroke="#5e5e5e" stroke-width="6" fill="none"/><path d="M659.54 633h-3.07v-6h3.07z" stroke="#5e5e5e" stroke-width=".05" fill="#5e5e5e"/><path d="M711.17 570l14.27-4.64v9.28z" stroke="#5e5e5e" stroke-width="6" fill="#5e5e5e"/><path d="M950 546a6 6 0 0 1 6-6h78a6 6 0 0 1 6 6v48a6 6 0 0 1-6 6h-78a6 6 0 0 1-6-6z" stroke="#5e5e5e" stroke-width="3" fill="#fff"/><use xlink:href="#k" transform="matrix(1,0,0,1,962,552) translate(6.328993055555557 24.5234375)"/><path d="M995 606a6 6 0 0 1 6-6h78a6 6 0 0 1 6 6v48a6 6 0 0 1-6 6h-78a6 6 0 0 1-6-6z" stroke="#5e5e5e" stroke-width="3" fill="#fff"/><use xlink:href="#k" transform="matrix(1,0,0,1,1007,612) translate(6.328993055555557 24.5234375)"/><path d="M1040 546a6 6 0 0 1 6-6h78a6 6 0 0 1 6 6v48a6 6 0 0 1-6 6h-78a6 6 0 0 1-6-6z" stroke="#5e5e5e" stroke-width="3" fill="#fff"/><use xlink:href="#k" transform="matrix(1,0,0,1,1052,552) translate(6.328993055555557 24.5234375)"/><path d="M945.54 570h-31a6 6 0 0 0-6 6v48a6 6 0 0 0 6 6h52.02" stroke="#5e5e5e" stroke-width="6" fill="none"/><path d="M948.54 573h-3.08v-6h3.07z" stroke="#5e5e5e" stroke-width=".05" fill="#5e5e5e"/><path d="M983.83 630l-14.27 4.64v-9.28z" stroke="#5e5e5e" stroke-width="6" fill="#5e5e5e"/><path d="M1089.46 630h76a6 6 0 0 0 6-6v-48a6 6 0 0 0-6-6h-7.02" stroke="#5e5e5e" stroke-width="6" fill="none"/><path d="M1089.54 633h-3.07v-6h3.07z" stroke="#5e5e5e" stroke-width=".05" fill="#5e5e5e"/><path d="M1141.17 570l14.27-4.64v9.28z" stroke="#5e5e5e" stroke-width="6" fill="#5e5e5e"/><path d="M1370 546a6 6 0 0 1 6-6h78a6 6 0 0 1 6 6v48a6 6 0 0 1-6 6h-78a6 6 0 0 1-6-6z" stroke="#5e5e5e" stroke-width="3" fill="#fff"/><use xlink:href="#k" transform="matrix(1,0,0,1,1382,552) translate(6.328993055555557 24.5234375)"/><path d="M1415 606a6 6 0 0 1 6-6h78a6 6 0 0 1 6 6v48a6 6 0 0 1-6 6h-78a6 6 0 0 1-6-6z" stroke="#5e5e5e" stroke-width="3" fill="#fff"/><use xlink:href="#k" transform="matrix(1,0,0,1,1427,612) translate(6.328993055555557 24.5234375)"/><path d="M1460 546a6 6 0 0 1 6-6h78a6 6 0 0 1 6 6v48a6 6 0 0 1-6 6h-78a6 6 0 0 1-6-6z" stroke="#5e5e5e" stroke-width="3" fill="#fff"/><use xlink:href="#k" transform="matrix(1,0,0,1,1472,552) translate(6.328993055555557 24.5234375)"/><path d="M1365.54 570h-31a6 6 0 0 0-6 6v48a6 6 0 0 0 6 6h52.02" stroke="#5e5e5e" stroke-width="6" fill="none"/><path d="M1368.54 573h-3.08v-6h3.07z" stroke="#5e5e5e" stroke-width=".05" fill="#5e5e5e"/><path d="M1403.83 630l-14.27 4.64v-9.28z" stroke="#5e5e5e" stroke-width="6" fill="#5e5e5e"/><path d="M1509.46 630h76a6 6 0 0 0 6-6v-48a6 6 0 0 0-6-6h-7.02" stroke="#5e5e5e" stroke-width="6" fill="none"/><path d="M1509.54 633h-3.07v-6h3.07z" stroke="#5e5e5e" stroke-width=".05" fill="#5e5e5e"/><path d="M1561.17 570l14.27-4.64v9.28z" stroke="#5e5e5e" stroke-width="6" fill="#5e5e5e"/><path d="M-542.16 384.96l-52.44-52.8c-3-2.88-7.68-2.88-10.44 0l-11.52 11.28 13.68 13.68c.84-.36 2.04-.6 3.24-.6 5.04 0 9.12 4.08 9.12 9.12 0 1.2-.24 2.4-.6 3.36l13.32 13.32c.84-.36 2.16-.6 3.24-.6 5.04 0 9.24 4.08 9.24 9.12 0 5.04-4.2 9.24-9.24 9.24s-9.12-4.2-9.12-9.24c0-1.2.24-2.4.6-3.24l-12.48-12.48v32.64c3 1.44 5.04 4.68 5.04 8.04 0 5.04-4.08 9.12-9.12 9.12-5.04 0-9.24-4.08-9.24-9.12 0-3.96 2.4-7.2 6-8.64v-33.24c-3.6-1.08-6-4.68-6-8.52 0-1.2.36-2.4.6-3.24l-13.56-13.68-35.88 36.48c-3 2.88-3 7.68 0 10.32l52.44 52.44c3 3 7.68 3 10.32 0l52.44-52.44c3.36-2.88 3.36-7.68.36-10.32z" stroke="#000" stroke-opacity="0" fill="#0078d7"/><use xlink:href="#n" transform="matrix(1,0,0,1,-690,459) translate(14.3876953125 15.896484375)"/><use xlink:href="#o" transform="matrix(1,0,0,1,-690,459) translate(57.5947265625 15.896484375)"/><path d="M-543.28 382.82h63.7a6 6 0 0 0 6-6v-129.4a6 6 0 0 1 6-6h46.2" stroke="#5e5e5e" stroke-width="2" fill="none"/><path d="M-543.26 383.82h-.03l-1.98-2h2.02z" stroke="#5e5e5e" stroke-width=".05" fill="#5e5e5e"/><path d="M-406.1 241.4l-14.28 4.65v-9.27z" stroke="#5e5e5e" stroke-width="2" fill="#5e5e5e"/><path d="M-539 389.88h61.56a6 6 0 0 1 6 6v196.7a6 6 0 0 0 6 6h44.06" stroke="#5e5e5e" stroke-width="2" fill="none"/><path d="M-538.97 390.88h-1.1l.1-.5-.08-1.5h1.08z" stroke="#5e5e5e" stroke-width=".05" fill="#5e5e5e"/><path d="M-406.1 598.6l-14.28 4.62v-9.27z" stroke="#5e5e5e" stroke-width="2" fill="#5e5e5e"/><path d="M-276.12 240h10.23m10.24 0h20.46m10.23 0h20.47m10.23 0h20.46m10.22 0h20.46m10.23 0h20.47m10.23 0h20.47m10.23 0h20.46m10.23 0h20.45m10.23 0h20.46m10.23 0h20.47m10.23 0H61.5" stroke="#7ab648" stroke-width="2" stroke-linejoin="round" fill="none"/><path d="M-276.1 241h-1.03v-2h1.03z" stroke="#7ab648" stroke-width=".05" fill="#7ab648"/><path d="M76.76 240l-14.26 4.64v-9.28z" stroke="#7ab648" stroke-width="2" fill="#7ab648"/><path d="M-276.12 241.43l9.7.2.34.02m10.03.65l8.8.93 8.75 1.3 2.36.44m9.83 2.04l4.03.96 7.65 2.13 7.42 2.4.2.08m9.37 3.6l4.86 2.04 7.14 3.36 6.14 3.2m8.73 5l7.2 4.58 8 5.57 1.45 1.1m7.97 6.1l9.28 7.7 5.97 5.4m7.44 6.74l14.46 13.96m7.22 6.98l14.46 13.96m7.23 6.98l14.46 13.96m7.46 6.72l6.46 5.35 8.7 6.62.64.43m8.28 5.7l6.65 4.22 7.3 4.23 3.35 1.74m9 4.45l1.98.92 7.17 3 7.26 2.7 2.3.75m9.6 2.9l3.18.9 7.94 1.86 8.3 1.6.2.02m9.93 1.4l7.88.84 2.12.13" stroke="#7ab648" stroke-width="2" stroke-linejoin="round" fill="none"/><path d="M-276.07 240.43l-.05 2-1-.02v-2z" stroke="#7ab648" stroke-width=".05" fill="#7ab648"/><path d="M75.3 419.88l-14.43 4.08.36-9.26z" stroke="#7ab648" stroke-width="2" fill="#7ab648"/><path d="M-276.12 598.57l9.92-.2m9.9-.48l6.97-.45 12.62-1.32.18-.03m9.82-1.45l2-.3 11.52-2.2 5.94-1.4m9.62-2.44l6.62-1.83 10.9-3.55 1.42-.53m9.3-3.47l.27-.1 11.23-4.72 6.67-3.13m8.9-4.4l8.74-4.57 8.65-5m8.5-5.1l13.84-8.8 2.83-1.98m8.13-5.68l14.03-9.8 2.22-1.6m8.02-5.86l16.04-11.7m8.03-5.84l16.04-11.7m8.02-5.84l16.03-11.7m8.02-5.84l11.78-8.6 4.45-2.82m8.38-5.32l10.6-6.75 6.3-3.64m8.6-4.96l6.22-3.6 2.44-1.27" stroke="#c92d39" stroke-width="2" stroke-linejoin="round" fill="none"/><path d="M-276.07 599.57l-1.05.02v-2l1-.03z" stroke="#c92d39" stroke-width=".05" fill="#c92d39"/><path d="M77.13 421.5l-10.47 10.74-4.3-8.2z" stroke="#c92d39" stroke-width="2" fill="#c92d39"/><path d="M-276.12 600h9.82m9.82 0h19.65m9.82 0h19.64m9.83 0h19.64m9.84 0h19.65m9.8 0h19.66m9.82 0h20.46m10.62 0h21.24m10.62 0h21.24m10.62 0H6.92m10.63 0H38.8m10.6 0h10.63" stroke="#c92d39" stroke-width="2" fill="none"/><path d="M-276.1 601h-1.02v-2h1.02z" stroke="#c92d39" stroke-width=".05" fill="#c92d39"/><path d="M75.3 600l-14.27 4.64v-9.28z" stroke="#c92d39" stroke-width="2" fill="#c92d39"/><path d="M-276.12 244.36l4.48.1 5.27.33h.28m9.97 1.3l4.68.88 4.76 1.12 4.7 1.3 4.62 1.5.67.25m9.3 3.77l3.82 1.8 4.63 2.42 4.7 2.7 4.4 2.8m8.16 5.85l2.07 1.56 5.18 4.28 5.4 4.85 2.5 2.47m7 7.2l2.15 2.27 6.44 7.47 4.4 5.58m6.05 8.02l4.4 6.1 6.95 10.46m5.33 8.5l7.95 13.17 2.26 4.14m4.8 8.8l9.47 17.32.17.3m4.62 8.93l9.25 17.83m4.63 8.92l9.24 17.84m4.63 8.9l9.24 17.85m4.62 8.92L-63.7 490m5.08 8.67l7.07 11.7 3.54 5.34m5.55 8.37l7.8 10.76 4.22 5.34m6.42 7.72l2.8 3.28 6.02 6.4 5 4.9m7.47 6.68l3.74 3.1 5 3.8 4.87 3.4 2.55 1.6m8.68 5.05l2.86 1.5 4.6 2.16 4.6 1.92 4.6 1.7 1.78.6m9.66 2.73l2.62.6 4.85.93 2.4.36" stroke="#7ab648" stroke-width="2" stroke-linejoin="round" fill="none"/><path d="M-276.07 243.36l-.04 2-1.02-.02v-2z" stroke="#7ab648" stroke-width=".05" fill="#7ab648"/><path d="M75.3 599.76l-14.56 3.57.68-9.24z" stroke="#7ab648" stroke-width="2" fill="#7ab648"/><path d="M-276.12 595.64l4.47-.1 5.28-.32.28-.03m9.97-1.28l4.68-.9 4.75-1.1 4.7-1.32 4.62-1.5.66-.25m9.3-3.76l3.84-1.8 4.63-2.44 4.7-2.7 4.4-2.8m8.16-5.85l2.07-1.55 5.18-4.28 5.38-4.86 2.53-2.46m7-7.2l2.14-2.27 6.44-7.48 4.4-5.57m6.05-8.03l4.4-6.08 6.95-10.48m5.33-8.5l7.94-13.16 2.27-4.15m4.8-8.8l9.47-17.32.17-.3m4.62-8.93l9.24-17.83m4.63-8.92l9.24-17.84m4.62-8.9l9.24-17.85m4.62-8.92L-63.7 350m5.08-8.67l7.07-11.7 3.54-5.34m5.55-8.37l7.8-10.76 4.22-5.33m6.4-7.72l2.84-3.28 6-6.4 5-4.9m7.5-6.68l3.74-3.1 5-3.8 4.87-3.4 2.55-1.6m8.68-5.05l2.86-1.5 4.6-2.16 4.6-1.92 4.6-1.7 1.78-.6m9.66-2.73l2.62-.6 4.85-.93 2.4-.36" stroke="#c92d39" stroke-width="2" stroke-linejoin="round" fill="none"/><path d="M-276.08 596.64l-1.05.02v-2l1-.02z" stroke="#c92d39" stroke-width=".05" fill="#c92d39"/><path d="M75.3 240.24l-13.88 5.67-.68-9.23z" stroke="#c92d39" stroke-width="2" fill="#c92d39"/><path d="M480 250.05a6 6 0 0 1 6-6h268a6 6 0 0 1 6 6V294a6 6 0 0 1-6 6H486a6 6 0 0 1-6-6z" stroke="#5e5e5e" stroke-width="3" fill="#fff"/><use xlink:href="#p" transform="matrix(1,0,0,1,492,256.05405405405406) translate(21.3159722222222 21.7734375)"/><use xlink:href="#q" transform="matrix(1,0,0,1,492,256.05405405405406) translate(101.32899305555554 21.7734375)"/><path d="M900 186a6 6 0 0 1 6-6h268a6 6 0 0 1 6 6v108a6 6 0 0 1-6 6H906a6 6 0 0 1-6-6z" stroke="#5e5e5e" stroke-width="3" fill="#fff"/><use xlink:href="#f" transform="matrix(1,0,0,1,912,192) translate(0 17.7734375)"/><path d="M1320 186a6 6 0 0 1 6-6h268a6 6 0 0 1 6 6v108a6 6 0 0 1-6 6h-268a6 6 0 0 1-6-6z" stroke="#5e5e5e" stroke-width="3" fill="#fff"/><use xlink:href="#f" transform="matrix(1,0,0,1,1332,192) translate(0 17.7734375)"/><path d="M-401.4 543.18a6 6 0 0 1 6-6h110.8a6 6 0 0 1 6 6V654a6 6 0 0 1-6 6h-110.8a6 6 0 0 1-6-6z" stroke="#5e5e5e" stroke-width="3" fill="#fff"/><use xlink:href="#r" transform="matrix(1,0,0,1,-396.4110742783101,542.1778514433798) translate(43.16449652777778 53.0859375)"/><use xlink:href="#s" transform="matrix(1,0,0,1,-396.4110742783101,542.1778514433798) translate(3.1579861111111 75.30815972222223)"/><path d="M-401.4 186a6 6 0 0 1 6-6h110.8a6 6 0 0 1 6 6v110.82a6 6 0 0 1-6 6h-110.8a6 6 0 0 1-6-6z" stroke="#5e5e5e" stroke-width="3" fill="#fff"/><g><use xlink:href="#t" transform="matrix(1,0,0,1,-396.4110742783101,185) translate(43.16449652777778 53.0859375)"/><use xlink:href="#s" transform="matrix(1,0,0,1,-396.4110742783101,185) translate(3.1579861111111 75.30815972222223)"/></g><path d="M900 250.05a6 6 0 0 1 6-6h268a6 6 0 0 1 6 6V294a6 6 0 0 1-6 6H906a6 6 0 0 1-6-6z" stroke="#5e5e5e" stroke-width="3" fill="#fff"/><g><use xlink:href="#p" transform="matrix(1,0,0,1,912,256.05405405405406) translate(21.3159722222222 21.7734375)"/><use xlink:href="#q" transform="matrix(1,0,0,1,912,256.05405405405406) translate(101.32899305555554 21.7734375)"/></g><path d="M1320 250.05a6 6 0 0 1 6-6h268a6 6 0 0 1 6 6V294a6 6 0 0 1-6 6h-268a6 6 0 0 1-6-6z" stroke="#5e5e5e" stroke-width="3" fill="#fff"/><g><use xlink:href="#p" transform="matrix(1,0,0,1,1332,256.05405405405406) translate(21.3159722222222 21.7734375)"/><use xlink:href="#q" transform="matrix(1,0,0,1,1332,256.05405405405406) translate(101.32899305555554 21.7734375)"/></g><defs><path fill="#147eba" d="M709-1193V0H519v-1193H76v-156h1076v156H709" id="u"/><path fill="#147eba" d="M162 0v-1349h919v156H353v422h668v154H353v461h769V0H162" id="v"/><path fill="#147eba" d="M614-1226c-167 1-283 53-283 213 0 183 186 193 334 234 230 63 463 120 463 409 0 286-219 387-518 390C309 23 131-98 79-338l185-37c34 165 149 248 351 246 184-2 324-58 324-238 0-203-207-221-372-266-210-57-422-111-422-377 0-267 201-356 470-360 279-5 430 101 480 324l-188 33c-28-141-121-215-293-213" id="w"/><g id="a"><use transform="matrix(0.0087890625,0,0,0.0087890625,0,0)" xlink:href="#u"/><use transform="matrix(0.0087890625,0,0,0.0087890625,10.8017578125,0)" xlink:href="#v"/><use transform="matrix(0.0087890625,0,0,0.0087890625,21.603515625,0)" xlink:href="#w"/><use transform="matrix(0.0087890625,0,0,0.0087890625,32.4052734375,0)" xlink:href="#u"/></g><path fill="#147eba" d="M1034 0L896-382H333L196 0H0l510-1349h217L1228 0h-194zM847-531c-77-225-157-447-231-674-69 231-154 451-232 674h463" id="x"/><path fill="#147eba" d="M655-135c108 0 195-33 260-74v-336H622v-160h479v572C981-54 839 20 639 20c-388 0-526-306-526-701 0-406 129-689 529-689 261 0 392 137 461 331l-171 56c-47-131-122-231-288-231-281 0-330 245-330 533 0 179 28 314 84 407s142 139 257 139" id="y"/><path fill="#147eba" d="M202-1349h823v156H709v1037h316V0H202v-156h316v-1037H202v-156" id="z"/><path fill="#147eba" d="M912-211c-10-84-18-177-18-274v-864h172V0H836L316-1130c7 79 16 167 16 254V0H162v-1349h222" id="A"/><g id="b"><use transform="matrix(0.0087890625,0,0,0.0087890625,0,0)" xlink:href="#w"/><use transform="matrix(0.0087890625,0,0,0.0087890625,10.8017578125,0)" xlink:href="#u"/><use transform="matrix(0.0087890625,0,0,0.0087890625,21.603515625,0)" xlink:href="#x"/><use transform="matrix(0.0087890625,0,0,0.0087890625,32.4052734375,0)" xlink:href="#y"/><use transform="matrix(0.0087890625,0,0,0.0087890625,43.20703125,0)" xlink:href="#z"/><use transform="matrix(0.0087890625,0,0,0.0087890625,54.0087890625,0)" xlink:href="#A"/><use transform="matrix(0.0087890625,0,0,0.0087890625,64.810546875,0)" xlink:href="#y"/></g><path fill="#147eba" d="M622-1349c296 4 497 117 497 404 0 282-193 424-485 431H353V0H162v-1349h460zm-15 684c195-3 320-88 320-277 0-184-129-255-328-254H353v531h254" id="B"/><path fill="#147eba" d="M1121-976c0 225-142 341-344 379L1177 0H957L591-575H353V0H162v-1349h482c281 3 477 100 477 373zM633-726c181-1 296-73 296-247 0-149-101-223-304-223H353v470h280" id="C"/><path fill="#147eba" d="M102-681c0-398 126-689 513-689 165 0 291 58 379 174s132 287 132 515c-1 318-88 554-298 657-123 61-317 58-438-3-206-104-288-341-288-654zm749 406c94-160 97-656-5-807-57-85-130-132-231-132-104 0-178 47-234 132-101 153-99 655 1 809 57 89 130 138 232 138 109 0 184-49 237-140" id="D"/><path fill="#147eba" d="M473-1349c438-1 655 221 652 661C1122-268 945-8 532 0H162v-1349h311zm42 1193c308-4 416-205 418-532 2-330-131-509-459-505H353v1037h162" id="E"/><g id="c"><use transform="matrix(0.0087890625,0,0,0.0087890625,0,0)" xlink:href="#B"/><use transform="matrix(0.0087890625,0,0,0.0087890625,10.8017578125,0)" xlink:href="#C"/><use transform="matrix(0.0087890625,0,0,0.0087890625,21.603515625,0)" xlink:href="#D"/><use transform="matrix(0.0087890625,0,0,0.0087890625,32.4052734375,0)" xlink:href="#E"/></g><path fill="#333" d="M650-1214c-281 0-336 244-336 533 0 295 60 546 347 546 188 0 263-142 322-282l159 65C1058-155 935 20 659 20c-401 0-546-295-546-701 0-407 135-689 536-689 264 0 391 146 466 335l-168 65c-47-129-127-244-297-244" id="F"/><path fill="#333" d="M202-1349h823v156H709v1037h316V0H202v-156h316v-1037H202v-156" id="G"/><g id="d"><use transform="matrix(0.0087890625,0,0,0.0087890625,0,0)" xlink:href="#F"/><use transform="matrix(0.0087890625,0,0,0.0087890625,10.8017578125,0)" xlink:href="#G"/></g><path fill="#333" d="M698-1104c312 3 392 244 392 558 0 315-82 566-392 566-169 0-277-65-331-184h-5c8 188 2 394 4 589H185V-858c0-76-1-156-6-224h175c6 52 9 120 10 178h4c58-122 150-202 330-200zm-49 991c225 0 255-203 255-433 0-225-32-419-253-419-236 0-285 192-285 441 0 237 53 411 283 411" id="H"/><path fill="#333" d="M839-1102c70 0 148 7 206 17v167c-112-18-268-36-363 15-129 69-208 203-208 395V0H294c-10-367 32-789-52-1082h171c21 75 41 161 48 250h5c67-152 152-270 373-270" id="I"/><path fill="#333" d="M615-1102c343 0 484 203 482 560-1 347-147 562-488 562-336 0-475-219-479-562-4-349 156-560 485-560zm-8 989c240 0 301-180 301-429 0-245-55-427-290-427-236 0-299 181-299 427 0 243 61 429 288 429" id="J"/><path fill="#333" d="M715 0H502L69-1082h202c94 253 197 500 285 758 19 57 36 126 52 183 96-335 234-626 350-941h201" id="K"/><path fill="#333" d="M745-142h380V0H143v-142h422v-798H246v-142h499v940zM545-1292v-192h200v192H545" id="L"/><path fill="#333" d="M865-914c-3-187-2-380-2-570h180v1261c0 76 1 155 6 223H877c-8-49-9-116-10-174h-5C801-44 708 26 530 26c-135 0-234-46-297-139s-95-232-95-419c0-377 131-566 392-566 176 0 271 63 335 184zm-286-51c-222 0-255 197-255 427 0 229 31 425 253 425 237 0 286-195 286-441 0-238-52-411-284-411" id="M"/><path fill="#333" d="M617-1102c355 0 481 238 477 599H322c5 222 84 388 301 388 144 0 244-59 284-166l158 45C1002-72 854 20 623 20c-342 0-490-220-490-568 0-346 151-554 484-554zm291 461c-18-192-90-328-289-328-194 0-287 128-295 328h584" id="N"/><g id="e"><use transform="matrix(0.0087890625,0,0,0.0087890625,0,0)" xlink:href="#H"/><use transform="matrix(0.0087890625,0,0,0.0087890625,10.8017578125,0)" xlink:href="#I"/><use transform="matrix(0.0087890625,0,0,0.0087890625,21.603515625,0)" xlink:href="#J"/><use transform="matrix(0.0087890625,0,0,0.0087890625,32.4052734375,0)" xlink:href="#K"/><use transform="matrix(0.0087890625,0,0,0.0087890625,43.20703125,0)" xlink:href="#L"/><use transform="matrix(0.0087890625,0,0,0.0087890625,54.0087890625,0)" xlink:href="#M"/><use transform="matrix(0.0087890625,0,0,0.0087890625,64.810546875,0)" xlink:href="#N"/><use transform="matrix(0.0087890625,0,0,0.0087890625,75.6123046875,0)" xlink:href="#I"/></g><path fill="#333" d="M1018 0H810c-67-251-137-496-194-756C558-495 487-250 419 0H211L0-1349h189c48 393 110 772 142 1181 58-262 128-512 197-763h175c69 251 139 500 197 763 37-402 92-789 139-1181h189" id="O"/><path fill="#333" d="M914 0L548-499l-132 98V0H236v-1484h180v927l475-525h211L663-617 1125 0H914" id="P"/><path fill="#333" d="M873-819c-18-114-119-146-250-146-163 0-245 50-245 151 0 151 170 148 294 185 182 54 388 94 388 320 0 240-189 325-439 329-245 4-410-69-454-268l159-31c24 133 136 168 295 165 144-2 270-31 270-171 0-164-195-160-331-202-167-52-350-87-350-299 0-218 173-315 413-313 220 2 373 77 412 260" id="Q"/><path fill="#333" d="M1000-272c3 95 12 159 101 161 21 0 41-3 59-7V-6c-44 10-86 16-139 16-141 2-191-84-197-217h-6C748-76 648 20 446 20c-207 0-318-120-318-322 0-266 194-348 454-354l236-4c12-191-40-305-222-305-140 0-220 47-232 172l-188-17c33-204 181-292 423-292 255 0 401 118 401 364v466zm-683-27c0 109 63 184 175 182 166-3 259-96 306-217 24-65 20-120 20-200-232 7-501-28-501 235" id="R"/><path fill="#333" d="M631 20c-350 0-501-215-501-562 0-355 162-560 502-560 250 0 399 118 446 323l-192 14c-23-124-109-196-262-196-242 0-305 171-305 415 1 245 61 427 304 427 151 0 248-77 267-215l190 12C1039-107 883 20 631 20" id="S"/><g id="f"><use transform="matrix(0.010850694444444444,0,0,0.010850694444444444,0,0)" xlink:href="#O"/><use transform="matrix(0.010850694444444444,0,0,0.010850694444444444,13.335503472222221,0)" xlink:href="#J"/><use transform="matrix(0.010850694444444444,0,0,0.010850694444444444,26.671006944444443,0)" xlink:href="#I"/><use transform="matrix(0.010850694444444444,0,0,0.010850694444444444,40.006510416666664,0)" xlink:href="#P"/><use transform="matrix(0.010850694444444444,0,0,0.010850694444444444,53.342013888888886,0)" xlink:href="#Q"/><use transform="matrix(0.010850694444444444,0,0,0.010850694444444444,66.67751736111111,0)" xlink:href="#H"/><use transform="matrix(0.010850694444444444,0,0,0.010850694444444444,80.01302083333334,0)" xlink:href="#R"/><use transform="matrix(0.010850694444444444,0,0,0.010850694444444444,93.34852430555557,0)" xlink:href="#S"/><use transform="matrix(0.010850694444444444,0,0,0.010850694444444444,106.6840277777778,0)" xlink:href="#N"/></g><g id="g"><use transform="matrix(0.010850694444444444,0,0,0.010850694444444444,0,0)" xlink:href="#G"/><use transform="matrix(0.010850694444444444,0,0,0.010850694444444444,13.335503472222221,0)" xlink:href="#R"/><use transform="matrix(0.010850694444444444,0,0,0.010850694444444444,26.671006944444443,0)" xlink:href="#R"/><use transform="matrix(0.010850694444444444,0,0,0.010850694444444444,40.006510416666664,0)" xlink:href="#F"/></g><path fill="#333" d="M736-142h380V0H134v-142h422v-1200H267v-142h469v1342" id="T"/><path fill="#333" d="M528 20c-247 0-343-132-343-381v-721h180v686c-4 177 45 284 224 277 194-8 279-136 279-336v-627h181c3 360-6 732 6 1082H885c-4-54-7-126-8-185h-3C809-64 714 20 528 20" id="U"/><path fill="#333" d="M682 16c-209 0-323-80-324-285v-671H190v-142h170l58-282h120v282h432v142H538v652c2 114 60 155 182 155 106 0 209-16 297-34v137C921-4 806 16 682 16" id="V"/><path fill="#333" d="M706-1102c241 0 344 136 343 381V0H868v-695c1-168-57-273-220-268-190 6-283 138-283 336V0H185c-3-360 6-732-6-1082h170c4 54 7 126 8 185h3c63-121 164-204 346-205" id="W"/><g id="h"><use transform="matrix(0.010850694444444444,0,0,0.010850694444444444,0,0)" xlink:href="#Q"/><use transform="matrix(0.010850694444444444,0,0,0.010850694444444444,13.335503472222221,0)" xlink:href="#J"/><use transform="matrix(0.010850694444444444,0,0,0.010850694444444444,26.671006944444443,0)" xlink:href="#T"/><use transform="matrix(0.010850694444444444,0,0,0.010850694444444444,40.006510416666664,0)" xlink:href="#U"/><use transform="matrix(0.010850694444444444,0,0,0.010850694444444444,53.342013888888886,0)" xlink:href="#V"/><use transform="matrix(0.010850694444444444,0,0,0.010850694444444444,66.67751736111111,0)" xlink:href="#L"/><use transform="matrix(0.010850694444444444,0,0,0.010850694444444444,80.01302083333334,0)" xlink:href="#J"/><use transform="matrix(0.010850694444444444,0,0,0.010850694444444444,93.34852430555557,0)" xlink:href="#W"/><use transform="matrix(0.010850694444444444,0,0,0.010850694444444444,106.6840277777778,0)" xlink:href="#Q"/></g><path fill="#333" d="M473-1349c438-1 655 221 652 661C1122-268 945-8 532 0H162v-1349h311zm42 1193c308-4 416-205 418-532 2-330-131-509-459-505H353v1037h162" id="X"/><path fill="#333" d="M168 279c222 39 310-114 368-290L66-1082h192c120 299 249 590 362 896 115-301 235-597 351-896h190L705 0c-65 164-130 320-275 396-67 36-177 35-262 18V279" id="Y"/><path fill="#333" d="M904-1102c199 0 220 177 220 381V0H956v-686c-3-114 0-215-60-264-70-33-125-4-158 71-26 56-39 140-39 252V0H531v-686c-3-114-1-215-61-264-78-41-136 24-157 84-24 69-39 159-39 259V0H105c-3-360 6-732-6-1082h149c6 50 3 123 8 175 36-100 83-195 216-195 135 0 166 79 196 196 42-105 93-196 236-196" id="Z"/><g id="i"><use transform="matrix(0.010850694444444444,0,0,0.010850694444444444,0,0)" xlink:href="#X"/><use transform="matrix(0.010850694444444444,0,0,0.010850694444444444,13.335503472222221,0)" xlink:href="#N"/><use transform="matrix(0.010850694444444444,0,0,0.010850694444444444,26.671006944444443,0)" xlink:href="#H"/><use transform="matrix(0.010850694444444444,0,0,0.010850694444444444,40.006510416666664,0)" xlink:href="#T"/><use transform="matrix(0.010850694444444444,0,0,0.010850694444444444,53.342013888888886,0)" xlink:href="#J"/><use transform="matrix(0.010850694444444444,0,0,0.010850694444444444,66.67751736111111,0)" xlink:href="#Y"/><use transform="matrix(0.010850694444444444,0,0,0.010850694444444444,80.01302083333334,0)" xlink:href="#Z"/><use transform="matrix(0.010850694444444444,0,0,0.010850694444444444,93.34852430555557,0)" xlink:href="#N"/><use transform="matrix(0.010850694444444444,0,0,0.010850694444444444,106.6840277777778,0)" xlink:href="#W"/><use transform="matrix(0.010850694444444444,0,0,0.010850694444444444,120.01953125000003,0)" xlink:href="#V"/></g><g id="j"><use transform="matrix(0.010850694444444444,0,0,0.010850694444444444,0,0)" xlink:href="#V"/><use transform="matrix(0.010850694444444444,0,0,0.010850694444444444,13.335503472222221,0)" xlink:href="#J"/><use transform="matrix(0.010850694444444444,0,0,0.010850694444444444,26.671006944444443,0)" xlink:href="#J"/><use transform="matrix(0.010850694444444444,0,0,0.010850694444444444,40.006510416666664,0)" xlink:href="#T"/><use transform="matrix(0.010850694444444444,0,0,0.010850694444444444,53.342013888888886,0)" xlink:href="#Q"/></g><path fill="#333" d="M709-1193V0H519v-1193H76v-156h1076v156H709" id="aa"/><g id="k"><use transform="matrix(0.010850694444444444,0,0,0.010850694444444444,0,0)" xlink:href="#aa"/><use transform="matrix(0.010850694444444444,0,0,0.010850694444444444,13.335503472222221,0)" xlink:href="#R"/><use transform="matrix(0.010850694444444444,0,0,0.010850694444444444,26.671006944444443,0)" xlink:href="#Q"/><use transform="matrix(0.010850694444444444,0,0,0.010850694444444444,40.006510416666664,0)" xlink:href="#P"/></g><path fill="#333" d="M102-681c0-398 126-689 513-689 165 0 291 58 379 174s132 287 132 515c-1 318-88 554-298 657-123 61-317 58-438-3-206-104-288-341-288-654zm749 406c94-160 97-656-5-807-57-85-130-132-231-132-104 0-178 47-234 132-101 153-99 655 1 809 57 89 130 138 232 138 109 0 184-49 237-140" id="ab"/><path fill="#333" d="M648-963c-190 6-283 138-283 336V0H185v-1484h181c-2 197 6 404-9 587h3c62-120 159-205 339-205 242 0 351 135 350 381V0H868v-695c1-168-57-273-220-268" id="ac"/><g id="l"><use transform="matrix(0.010850694444444442,0,0,0.010850694444444442,0,0)" xlink:href="#ab"/><use transform="matrix(0.010850694444444442,0,0,0.010850694444444442,13.33550347222222,0)" xlink:href="#I"/><use transform="matrix(0.010850694444444442,0,0,0.010850694444444442,26.67100694444444,0)" xlink:href="#S"/><use transform="matrix(0.010850694444444442,0,0,0.010850694444444442,40.00651041666666,0)" xlink:href="#ac"/><use transform="matrix(0.010850694444444442,0,0,0.010850694444444442,53.34201388888888,0)" xlink:href="#N"/><use transform="matrix(0.010850694444444442,0,0,0.010850694444444442,66.6775173611111,0)" xlink:href="#Q"/><use transform="matrix(0.010850694444444442,0,0,0.010850694444444442,80.01302083333331,0)" xlink:href="#V"/><use transform="matrix(0.010850694444444442,0,0,0.010850694444444442,93.34852430555554,0)" xlink:href="#I"/><use transform="matrix(0.010850694444444442,0,0,0.010850694444444442,106.68402777777774,0)" xlink:href="#R"/><use transform="matrix(0.010850694444444442,0,0,0.010850694444444442,120.01953124999996,0)" xlink:href="#V"/><use transform="matrix(0.010850694444444442,0,0,0.010850694444444442,133.35503472222217,0)" xlink:href="#L"/><use transform="matrix(0.010850694444444442,0,0,0.010850694444444442,146.6905381944444,0)" xlink:href="#J"/><use transform="matrix(0.010850694444444442,0,0,0.010850694444444442,160.02604166666663,0)" xlink:href="#W"/></g><path fill="#333" d="M839-1335c-182-6-269 67-259 253h491v142H580V0H400v-940H138v-142h262c-15-293 132-408 418-402 94 2 200 7 281 21v145c-75-10-177-14-260-17" id="ad"/><path fill="#333" d="M1018 0H814c-67-224-138-444-200-673C552-442 476-224 407 0H204L21-1082h178c43 310 105 601 126 933 54-225 128-425 193-638h193c63 212 134 415 185 638 22-336 90-622 136-933h176" id="ae"/><g id="m"><use transform="matrix(0.010850694444444442,0,0,0.010850694444444442,0,0)" xlink:href="#ad"/><use transform="matrix(0.010850694444444442,0,0,0.010850694444444442,13.33550347222222,0)" xlink:href="#I"/><use transform="matrix(0.010850694444444442,0,0,0.010850694444444442,26.67100694444444,0)" xlink:href="#R"/><use transform="matrix(0.010850694444444442,0,0,0.010850694444444442,40.00651041666666,0)" xlink:href="#Z"/><use transform="matrix(0.010850694444444442,0,0,0.010850694444444442,53.34201388888888,0)" xlink:href="#N"/><use transform="matrix(0.010850694444444442,0,0,0.010850694444444442,66.6775173611111,0)" xlink:href="#ae"/><use transform="matrix(0.010850694444444442,0,0,0.010850694444444442,80.01302083333331,0)" xlink:href="#J"/><use transform="matrix(0.010850694444444442,0,0,0.010850694444444442,93.34852430555554,0)" xlink:href="#I"/><use transform="matrix(0.010850694444444442,0,0,0.010850694444444442,106.68402777777774,0)" xlink:href="#P"/><use transform="matrix(0.010850694444444442,0,0,0.010850694444444442,120.01953124999996,0)" xlink:href="#Q"/></g><path d="M655-135c108 0 195-33 260-74v-336H622v-160h479v572C981-54 839 20 639 20c-388 0-526-306-526-701 0-406 129-689 529-689 261 0 392 137 461 331l-171 56c-47-131-122-231-288-231-281 0-330 245-330 533 0 179 28 314 84 407s142 139 257 139" id="af"/><path d="M745-142h380V0H143v-142h422v-798H246v-142h499v940zM545-1292v-192h200v192H545" id="ag"/><path d="M682 16c-209 0-323-80-324-285v-671H190v-142h170l58-282h120v282h432v142H538v652c2 114 60 155 182 155 106 0 209-16 297-34v137C921-4 806 16 682 16" id="ah"/><g id="n"><use transform="matrix(0.0087890625,0,0,0.0087890625,0,0)" xlink:href="#af"/><use transform="matrix(0.0087890625,0,0,0.0087890625,10.8017578125,0)" xlink:href="#ag"/><use transform="matrix(0.0087890625,0,0,0.0087890625,21.603515625,0)" xlink:href="#ah"/></g><path d="M839-1102c70 0 148 7 206 17v167c-112-18-268-36-363 15-129 69-208 203-208 395V0H294c-10-367 32-789-52-1082h171c21 75 41 161 48 250h5c67-152 152-270 373-270" id="ai"/><path d="M617-1102c355 0 481 238 477 599H322c5 222 84 388 301 388 144 0 244-59 284-166l158 45C1002-72 854 20 623 20c-342 0-490-220-490-568 0-346 151-554 484-554zm291 461c-18-192-90-328-289-328-194 0-287 128-295 328h584" id="aj"/><path d="M698-1104c312 3 392 244 392 558 0 315-82 566-392 566-169 0-277-65-331-184h-5c8 188 2 394 4 589H185V-858c0-76-1-156-6-224h175c6 52 9 120 10 178h4c58-122 150-202 330-200zm-49 991c225 0 255-203 255-433 0-225-32-419-253-419-236 0-285 192-285 441 0 237 53 411 283 411" id="ak"/><path d="M615-1102c343 0 484 203 482 560-1 347-147 562-488 562-336 0-475-219-479-562-4-349 156-560 485-560zm-8 989c240 0 301-180 301-429 0-245-55-427-290-427-236 0-299 181-299 427 0 243 61 429 288 429" id="al"/><path d="M873-819c-18-114-119-146-250-146-163 0-245 50-245 151 0 151 170 148 294 185 182 54 388 94 388 320 0 240-189 325-439 329-245 4-410-69-454-268l159-31c24 133 136 168 295 165 144-2 270-31 270-171 0-164-195-160-331-202-167-52-350-87-350-299 0-218 173-315 413-313 220 2 373 77 412 260" id="am"/><path d="M168 279c222 39 310-114 368-290L66-1082h192c120 299 249 590 362 896 115-301 235-597 351-896h190L705 0c-65 164-130 320-275 396-67 36-177 35-262 18V279" id="an"/><g id="o"><use transform="matrix(0.0087890625,0,0,0.0087890625,0,0)" xlink:href="#ai"/><use transform="matrix(0.0087890625,0,0,0.0087890625,10.8017578125,0)" xlink:href="#aj"/><use transform="matrix(0.0087890625,0,0,0.0087890625,21.603515625,0)" xlink:href="#ak"/><use transform="matrix(0.0087890625,0,0,0.0087890625,32.4052734375,0)" xlink:href="#al"/><use transform="matrix(0.0087890625,0,0,0.0087890625,43.20703125,0)" xlink:href="#am"/><use transform="matrix(0.0087890625,0,0,0.0087890625,54.0087890625,0)" xlink:href="#ag"/><use transform="matrix(0.0087890625,0,0,0.0087890625,64.810546875,0)" xlink:href="#ah"/><use transform="matrix(0.0087890625,0,0,0.0087890625,75.6123046875,0)" xlink:href="#al"/><use transform="matrix(0.0087890625,0,0,0.0087890625,86.4140625,0)" xlink:href="#ai"/><use transform="matrix(0.0087890625,0,0,0.0087890625,97.2158203125,0)" xlink:href="#an"/></g><g id="p"><use transform="matrix(0.010850694444444444,0,0,0.010850694444444444,0,0)" xlink:href="#F"/><use transform="matrix(0.010850694444444444,0,0,0.010850694444444444,13.335503472222221,0)" xlink:href="#T"/><use transform="matrix(0.010850694444444444,0,0,0.010850694444444444,26.671006944444443,0)" xlink:href="#J"/><use transform="matrix(0.010850694444444444,0,0,0.010850694444444444,40.006510416666664,0)" xlink:href="#U"/><use transform="matrix(0.010850694444444444,0,0,0.010850694444444444,53.342013888888886,0)" xlink:href="#M"/></g><g id="q"><use transform="matrix(0.010850694444444444,0,0,0.010850694444444444,0,0)" xlink:href="#S"/><use transform="matrix(0.010850694444444444,0,0,0.010850694444444444,13.335503472222221,0)" xlink:href="#J"/><use transform="matrix(0.010850694444444444,0,0,0.010850694444444444,26.671006944444443,0)" xlink:href="#Z"/><use transform="matrix(0.010850694444444444,0,0,0.010850694444444444,40.006510416666664,0)" xlink:href="#H"/><use transform="matrix(0.010850694444444444,0,0,0.010850694444444444,53.342013888888886,0)" xlink:href="#J"/><use transform="matrix(0.010850694444444444,0,0,0.010850694444444444,66.67751736111111,0)" xlink:href="#W"/><use transform="matrix(0.010850694444444444,0,0,0.010850694444444444,80.01302083333334,0)" xlink:href="#N"/><use transform="matrix(0.010850694444444444,0,0,0.010850694444444444,93.34852430555557,0)" xlink:href="#W"/><use transform="matrix(0.010850694444444444,0,0,0.010850694444444444,106.6840277777778,0)" xlink:href="#V"/><use transform="matrix(0.010850694444444444,0,0,0.010850694444444444,120.01953125000003,0)" xlink:href="#Q"/></g><g id="r"><use transform="matrix(0.010850694444444444,0,0,0.010850694444444444,0,0)" xlink:href="#F"/><use transform="matrix(0.010850694444444444,0,0,0.010850694444444444,13.335503472222221,0)" xlink:href="#X"/></g><g id="s"><use transform="matrix(0.010850694444444444,0,0,0.010850694444444444,0,0)" xlink:href="#H"/><use transform="matrix(0.010850694444444444,0,0,0.010850694444444444,13.335503472222221,0)" xlink:href="#L"/><use transform="matrix(0.010850694444444444,0,0,0.010850694444444444,26.671006944444443,0)" xlink:href="#H"/><use transform="matrix(0.010850694444444444,0,0,0.010850694444444444,40.006510416666664,0)" xlink:href="#N"/><use transform="matrix(0.010850694444444444,0,0,0.010850694444444444,53.342013888888886,0)" xlink:href="#T"/><use transform="matrix(0.010850694444444444,0,0,0.010850694444444444,66.67751736111111,0)" xlink:href="#L"/><use transform="matrix(0.010850694444444444,0,0,0.010850694444444444,80.01302083333334,0)" xlink:href="#W"/><use transform="matrix(0.010850694444444444,0,0,0.010850694444444444,93.34852430555557,0)" xlink:href="#N"/></g><g id="t"><use transform="matrix(0.010850694444444444,0,0,0.010850694444444444,0,0)" xlink:href="#F"/><use transform="matrix(0.010850694444444444,0,0,0.010850694444444444,13.335503472222221,0)" xlink:href="#G"/></g></defs></g></svg>