<svg xmlns="http://www.w3.org/2000/svg" xmlns:xlink="http://www.w3.org/1999/xlink" xmlns:lucid="lucid" width="889.9" height="1360.1"><g transform="translate(-326.4332885808716 -203.73651680633063)" lucid:page-tab-id="7xHqW2ry3bi9"><path d="M0 0h1870.87v2581.67H0z" fill="#fff"/><path d="M365.33 229.74a6 6 0 0 1 6-6h308a6 6 0 0 1 6 6v249.33a6 6 0 0 1-6 6h-308a6 6 0 0 1-6-6z" fill-opacity="0"/><path d="M388.22 223.8h11.88m11.88 0h11.88m11.9 0h11.87m11.88 0h11.9m11.88-.02h11.88m11.88 0h11.88m11.9 0h11.87m11.87 0l11.88-.02m11.88 0h11.9m11.87 0h11.88m11.88 0h11.9m11.87-.02h11.88m11.9 0h5.93l.94.07.92.23.86.36.8.48.72.6.6.73.5.8.36.88.22.92v6.25m0 12.52v12.5m0 12.53l.02 12.5m0 12.52v12.52m0 12.5v12.52m0 12.52l.02 12.5m0 12.52v12.52m0 12.5v12.53m.02 12.5v12.52m0 12.52v12.5m0 12.5v6.27l-.06.94-.22.92-.36.87-.5.8-.6.7-.72.62-.8.5-.87.36-.93.22h-5.94m-11.88 0h-11.88m-11.9 0H626.8m-11.88 0h-11.88m-11.88.02h-11.9m-11.87 0h-11.9m-11.87 0h-11.9m-11.87 0l-11.88.02m-11.88 0h-11.9m-11.87 0h-11.88m-11.88 0H436.7m-11.9.02h-11.88m-11.88 0h-11.88m-11.9 0h-5.93l-.94-.06-.92-.22-.87-.36-.8-.5-.7-.6-.62-.72-.5-.8-.35-.88-.22-.9v-6.27m0-12.5V448.7m0-12.5V423.7m0-12.52l-.02-12.5m0-12.52v-12.52m0-12.5V348.6m-.02-12.52v-12.5m0-12.53v-12.5m0-12.52v-12.52m-.02-12.5V248.5m0-12.5v-6.26l.07-.94.23-.92.36-.87.48-.8.6-.7.73-.62.8-.5.88-.35.9-.22h5.96" stroke="#147eba" stroke-width="3" fill="none"/><use xlink:href="#a" transform="matrix(1,0,0,1,365.33333333337214,243.73651680633063) translate(46.648220486111086 17.7734375)"/><use xlink:href="#b" transform="matrix(1,0,0,1,365.33333333337214,243.73651680633063) translate(126.66124131944443 17.7734375)"/><path d="M812.33 229.74a6 6 0 0 1 6-6h372a6 6 0 0 1 6 6v249.33a6 6 0 0 1-6 6h-372a6 6 0 0 1-6-6z" fill-opacity="0"/><path d="M834.88 223.8h11.65m11.65 0h11.66m11.65 0h11.65m11.65 0h11.66m11.65 0h11.67m11.65-.02h11.65m11.66 0h11.65m11.66 0h11.65m11.65 0H1033m11.65 0l11.66-.02m11.66 0h11.66m11.65 0h11.66m11.65 0h11.65m11.66 0l11.64-.02m11.66 0h11.65m11.66 0h5.83l.94.07.92.23.86.36.8.48.72.6.6.73.5.8.36.88.22.92v6.25m0 12.52v12.5m0 12.53l.02 12.5m0 12.52v12.52m0 12.5v12.52m0 12.52l.02 12.5m0 12.52v12.52m0 12.5v12.53m.02 12.5v12.52m0 12.52v12.5m0 12.5v6.27l-.06.94-.22.92-.36.87-.5.8-.6.7-.72.62-.8.5-.87.36-.93.22h-5.83m-11.65 0h-11.66m-11.66 0h-11.65m-11.66 0h-11.65m-11.66 0l-11.65.02m-11.64 0h-11.66m-11.65 0h-11.66m-11.66 0h-11.66m-11.65 0h-11.65m-11.66.02h-11.65m-11.66 0h-11.64m-11.66 0h-11.65m-11.65 0h-11.66m-11.65 0l-11.67.02m-11.65 0h-11.66m-11.65 0H835.8m-11.64 0h-5.83l-.94-.06-.92-.22-.87-.36-.8-.5-.7-.6-.62-.72-.5-.8-.35-.88-.22-.9v-6.27m0-12.5V448.7m0-12.5V423.7m0-12.52l-.02-12.5m0-12.52v-12.52m0-12.5V348.6m-.02-12.52v-12.5m0-12.53v-12.5m0-12.52v-12.52m-.02-12.5V248.5m0-12.5v-6.26l.07-.94.23-.92.36-.87.48-.8.6-.7.73-.62.8-.5.88-.35.9-.22h5.84" stroke="#147eba" stroke-width="3" fill="none"/><use xlink:href="#c" transform="matrix(1,0,0,1,812.3333333333333,243.73651680633063) translate(98.65147569444443 17.7734375)"/><use xlink:href="#d" transform="matrix(1,0,0,1,812.3333333333333,243.73651680633063) translate(151.99348958333331 17.7734375)"/><path d="M409.33 787.25a6 6 0 0 1 6-6h308a6 6 0 0 1 6 6v468.9a6 6 0 0 1-6 6h-308a6 6 0 0 1-6-6z" fill="#e3fae3"/><path d="M432.22 781.32h11.88m11.88 0h11.88m11.9 0l11.87-.02m11.88 0h11.9m11.88 0h11.88m11.88 0h11.88m11.9-.02h11.87m11.87 0h11.88m11.88 0h11.9m11.87 0l11.88-.02m11.88 0h11.9m11.87 0h11.88m11.9 0h5.93l.94.06.92.22.86.36.8.5.72.6.6.72.5.8.36.88.22.9v5.88m0 11.75v11.75m0 11.74v11.75m0 11.74v11.76m0 11.74l.02 11.75m0 11.75v11.74m0 11.75v11.73m0 11.75v11.74m0 11.75v11.75m0 11.74v11.75m.02 11.75v11.75m0 11.75v11.74m0 11.74v11.74m0 11.75v11.74m0 11.75v11.75m0 11.74l.02 11.76m0 11.74v11.75m0 11.74v11.74m0 11.75v11.73m0 11.75v11.74m0 11.75v5.87l-.06.94-.22.92-.36.87-.5.8-.6.7-.72.63-.8.5-.87.35-.93.22h-5.94m-11.88 0h-11.88m-11.9 0H670.8m-11.88 0l-11.88.02m-11.88 0h-11.9m-11.87 0h-11.9m-11.87 0h-11.9m-11.87 0h-11.88m-11.88 0l-11.9.02m-11.87 0h-11.88m-11.88 0H480.7m-11.9 0h-11.88m-11.88 0l-11.88.02m-11.9 0h-5.93l-.94-.07-.92-.22-.87-.36-.8-.5-.7-.62-.62-.7-.5-.8-.35-.88-.22-.92v-5.87m0-11.74v-11.74m0-11.75v-11.75m0-11.74v-11.75m0-11.74v-11.76m0-11.74v-11.75m0-11.75l-.02-11.74m0-11.75v-11.73m0-11.75v-11.74m0-11.75v-11.75m0-11.74v-11.75m0-11.75V992.8m-.02-11.75V969.3m0-11.74v-11.74m0-11.75v-11.74m0-11.75v-11.75m0-11.74v-11.76m0-11.74l-.02-11.75m0-11.74v-11.74m0-11.75v-11.73m0-11.75v-5.87l.07-.94.23-.9.36-.87.48-.8.6-.72.73-.6.8-.5.88-.36.9-.22h5.96" stroke="#147eba" stroke-width="3" fill="none"/><use xlink:href="#e" transform="matrix(1,0,0,1,409.33333333333326,801.2493438320213) translate(86.65473090277777 17.7734375)"/><use xlink:href="#f" transform="matrix(1,0,0,1,409.33333333333326,801.2493438320213) translate(126.66124131944443 17.7734375)"/><path d="M821.33 691.25a6 6 0 0 1 6-6h308a6 6 0 0 1 6 6v449.33a6 6 0 0 1-6 6h-308a6 6 0 0 1-6-6z" fill="#cfe4ff"/><path d="M844.22 685.32h11.88m11.88 0h11.88m11.9 0l11.87-.02m11.88 0h11.9m11.88 0h11.88m11.88 0h11.88m11.9-.02h11.87m11.87 0h11.88m11.88 0h11.9m11.87 0l11.88-.02m11.88 0h11.9m11.87 0h11.88m11.9 0h5.93l.94.06.92.22.86.36.8.5.72.6.6.72.5.8.36.88.22.9v5.94m0 11.84v11.85m0 11.85v11.85m0 11.85v11.85m0 11.85l.02 11.85m0 11.85v11.85m0 11.85v11.85m0 11.85v11.85m0 11.84v11.85m0 11.85l.02 11.85m0 11.85v11.85m0 11.85v11.85m0 11.85v11.85m0 11.85v11.85m0 11.85V1028m.02 11.86v11.85m0 11.86v11.85m0 11.86v11.85m0 11.86v11.85m0 11.86v5.92l-.06.94-.22.92-.36.87-.5.8-.6.73-.72.6-.8.5-.87.36-.93.2h-5.94m-11.88 0l-11.88.02m-11.9 0h-11.87m-11.88 0h-11.88m-11.88 0h-11.9m-11.87.02h-11.9m-11.87 0h-11.9m-11.87 0h-11.88m-11.88 0l-11.9.02m-11.87 0h-11.88m-11.88 0H892.7m-11.9 0h-11.88m-11.88.02h-11.88m-11.9 0h-5.93l-.94-.07-.92-.2-.87-.37-.8-.5-.7-.6-.62-.72-.5-.8-.35-.86-.22-.92v-5.92m0-11.85v-11.85m0-11.85v-11.85m0-11.85v-11.85m0-11.85v-11.85m0-11.85v-11.85m-.02-11.85V993.4m0-11.84V969.7m0-11.84V946m0-11.84V922.3m0-11.84V898.6m0-11.84l-.02-11.85m0-11.84V851.2m0-11.83v-11.85m0-11.85v-11.85m0-11.85v-11.85m0-11.85l-.02-11.85m0-11.85v-11.85m0-11.85v-11.85m0-11.85v-5.92l.07-.94.23-.9.36-.87.48-.8.6-.72.73-.6.8-.5.88-.36.9-.22h5.96" stroke="#147eba" stroke-width="3" fill="none"/><use xlink:href="#g" transform="matrix(1,0,0,1,821.3333333333333,705.2493438320213) translate(86.65473090277777 17.7734375)"/><use xlink:href="#f" transform="matrix(1,0,0,1,821.3333333333333,705.2493438320213) translate(126.66124131944443 17.7734375)"/><path d="M365.33 527.1a6 6 0 0 1 6-6h819a6 6 0 0 1 6 6v755.47a6 6 0 0 1-6 6h-819a6 6 0 0 1-6-6z" fill-opacity="0"/><path d="M388.48 521.16h12.06m12.06 0h12.06m12.05 0h12.07m12.06 0h12.06m12.04 0H497m12.06 0h12.06m12.06 0h12.05m12.06 0l12.05-.02m12.06 0h12.07m12.05 0h12.06m12.06 0h12.06m12.06 0h12.05m12.07 0h12.06m12.06 0h12.05m12.05 0h12.06m12.06 0h12.06m12.06 0l12.05-.02m12.05 0h12.06m12.07 0h12.05m12.06 0h12.06m12.06 0h12.06m12.05 0h12.07m12.06 0h12.06m12.05 0h12.05m12.06 0h12.06m12.06 0l12.06-.02m12.05 0h12.05m12.06 0h12.07m12.06 0h12.05m12.06 0h12.06m12.06 0H1124m12.07 0h12.06m12.06 0h12.05m12.05 0h6.03l.94.06.92.22.86.36.8.5.72.6.6.72.5.8.36.87.22.92v5.9m0 11.83v11.82m0 11.82v11.82m0 11.8v11.83m0 11.82v11.8m0 11.83v11.82m0 11.82v11.82m0 11.8l.02 11.83m0 11.82v11.8m0 11.83v11.82m0 11.82v11.82m0 11.82v11.82m0 11.82v11.82m0 11.82v11.82m0 11.8V863m0 11.8v11.83m.02 11.82v11.82m0 11.82v11.8m0 11.83v11.82m0 11.82v11.8m0 11.83v11.82m0 11.82v11.82m0 11.82v11.82m0 11.82v11.82m0 11.82l.02 11.82m0 11.8v11.83m0 11.83v11.82m0 11.82v11.82m0 11.8v11.83m0 11.82v11.82m0 11.82v11.8m0 11.82v11.82m0 11.82v5.9l-.06.95-.22.93-.36.87-.5.8-.6.7-.72.63-.8.5-.87.35-.93.22h-6.03m-12.05 0h-12.07m-12.06 0H1137m-12.05 0h-12.05m-12.06 0h-12.06m-12.06 0h-12.06m-12.05 0h-12.05m-12.06 0h-12.07m-12.06 0l-12.05.02m-12.06 0H968.2m-12.06 0h-12.06m-12.05 0h-12.06m-12.06 0h-12.05m-12.06 0h-12.06m-12.06 0h-12.06m-12.06 0H823.5m-12.05 0H799.4m-12.07 0h-12.06m-12.05.02h-12.06m-12.06 0h-12.06m-12.06 0h-12.05m-12.06 0H678.8m-12.05 0H654.7m-12.06 0h-12.06m-12.06 0h-12.06m-12.06 0h-12.05m-12.06 0h-12.07m-12.06.02h-12.05m-12.06 0H510m-12.06 0h-12.06m-12.05 0h-12.06m-12.06 0h-12.05m-12.06 0h-12.06m-12.06 0h-12.06m-12.06 0h-6.03l-.94-.06-.92-.22-.87-.36-.8-.5-.7-.6-.62-.72-.5-.8-.35-.87-.22-.92v-5.9m0-11.82v-11.82m0-11.82v-11.82m0-11.82v-11.8m0-11.83v-11.82m0-11.82v-11.82m0-11.8v-11.83m0-11.82v-11.82m0-11.82v-11.8m0-11.82v-11.82m-.02-11.82v-11.82m0-11.82v-11.82m0-11.82v-11.82m0-11.82V970.3m0-11.82v-11.8m0-11.83v-11.82m0-11.82v-11.8m0-11.83v-11.82m0-11.82V852.1m-.02-11.8v-11.83m0-11.8v-11.83m0-11.82V781.2m0-11.82v-11.82m0-11.82v-11.82m0-11.82v-11.82m0-11.82v-11.8m0-11.83V663m0-11.8l-.02-11.83m0-11.82v-11.82m0-11.82v-11.8m0-11.83v-11.82m0-11.8V544.8m0-11.82v-5.9l.07-.95.23-.92.36-.87.48-.8.6-.7.73-.63.8-.5.88-.35.9-.22h6.04" stroke="#147eba" stroke-width="3" fill="none"/><use xlink:href="#e" transform="matrix(1,0,0,1,365.33333333337214,541.088041414195) translate(342.15473090277777 17.7734375)"/><use xlink:href="#h" transform="matrix(1,0,0,1,365.33333333337214,541.088041414195) translate(382.16124131944446 17.7734375)"/><path d="M445.33 300.4a6 6 0 0 1 6-6h148a6 6 0 0 1 6 6v108a6 6 0 0 1-6 6h-148a6 6 0 0 1-6-6z" stroke="#5e5e5e" stroke-width="3" fill="#fff"/><use xlink:href="#i" transform="matrix(1,0,0,1,457.33333333337214,306.4031834729973) translate(14.657986111111114 53.7734375)"/><use xlink:href="#j" transform="matrix(1,0,0,1,457.33333333337214,306.4031834729973) translate(68 53.7734375)"/><path d="M1062.17 349.36l-52.44-52.8c-3-2.88-7.68-2.88-10.44 0l-11.53 11.28 13.68 13.68c.84-.36 2.04-.6 3.24-.6 5.03 0 9.1 4.08 9.1 9.12 0 1.2-.23 2.4-.6 3.36l13.33 13.32c.84-.36 2.16-.6 3.24-.6 5.04 0 9.24 4.08 9.24 9.12 0 5.04-4.2 9.24-9.23 9.24-5.04 0-9.12-4.2-9.12-9.24 0-1.2.24-2.4.6-3.24l-12.48-12.48v32.64c3 1.44 5.04 4.68 5.04 8.04 0 5.04-4.07 9.12-9.1 9.12-5.05 0-9.25-4.08-9.25-9.12 0-3.96 2.4-7.2 6-8.64v-33.24c-3.6-1.08-6-4.68-6-8.52 0-1.2.36-2.4.6-3.24l-13.56-13.68-35.9 36.48c-3 2.88-3 7.68 0 10.32l52.45 52.44c3 3 7.68 3 10.32 0l52.44-52.44c3.37-2.88 3.37-7.68.37-10.32z" stroke="#000" stroke-opacity="0" fill="#0078d7"/><path d="M607.8 354.4h318.07" stroke="#5e5e5e" stroke-width="2" fill="none"/><path d="M607.82 355.4h-1.02v-2h1.02z" stroke="#5e5e5e" stroke-width=".05" fill="#5e5e5e"/><path d="M941.14 354.4l-14.27 4.64v-9.27z" stroke="#5e5e5e" stroke-width="2" fill="#5e5e5e"/><path d="M570.33 761.28h-2l.02-30.38h2zM867 627.2l-.08 1.07-.26 1.07-.42 1-.58.95-.7.83-.85.7-.92.58-1.02.43-1.1.27-285.7.07-.8.07-.77.18-.74.3-.66.4-.6.52-.5.6-.42.66-.3.73-.17.72-.03 65.88h-2l.04-66.1.27-1.12.42-1 .57-.94.7-.84.85-.7.93-.6 1.02-.4 1.07-.26 1.05-.1 285.52-.06.72-.17.73-.3.67-.4.6-.52.5-.6.4-.66.3-.72.2-.77.06-.82V487.56h2z" stroke="#5e5e5e" stroke-width=".05" fill="#5e5e5e"/><path d="M867 487.6h-2v-1.04h2z" fill="#5e5e5e"/><path d="M867.02 487.6h-2.05v-1.06h2.05zm-2-1v.96h1.95v-.97z" stroke="#5e5e5e" stroke-width=".05" fill="#5e5e5e"/><path d="M569.33 776.55l-4.63-14.27h9.27z" fill="#5e5e5e"/><path d="M569.33 779.8l-6-18.52h12.02zm-3.26-16.52l3.26 10.03 3.26-10.02z" stroke="#5e5e5e" stroke-width=".05" fill="#5e5e5e"/><use xlink:href="#k" transform="matrix(1,0,0,1,513.3242187499999,704.2294899379835) translate(0 21.328124999999996)"/><use xlink:href="#l" transform="matrix(1,0,0,1,513.3242187499999,704.2294899379835) translate(48.00781249999999 21.328124999999996)"/><path d="M422.67 844.36a6 6 0 0 1 6-6h278.66a6 6 0 0 1 6 6v56.44a6 6 0 0 1-6 6H428.67a6 6 0 0 1-6-6z" stroke="#5e5e5e" stroke-width="3" fill="#fff"/><use xlink:href="#m" transform="matrix(1,0,0,1,434.6666666666667,850.3604549431323) translate(66.82248263888889 17.7734375)"/><use xlink:href="#n" transform="matrix(1,0,0,1,434.6666666666667,850.3604549431323) translate(173.50651041666669 17.7734375)"/><use xlink:href="#o" transform="matrix(1,0,0,1,434.6666666666667,850.3604549431323) translate(53.48697916666664 39.99565972222222)"/><path d="M424 957.33a6 6 0 0 1 6-6h278.67a6 6 0 0 1 6 6V1008a6 6 0 0 1-6 6H430a6 6 0 0 1-6-6z" stroke="#5e5e5e" stroke-width="3" fill="#fff"/><use xlink:href="#p" transform="matrix(1,0,0,1,435.99999999999994,963.3333333333335) translate(40.15147569444444 25.0859375)"/><use xlink:href="#q" transform="matrix(1,0,0,1,435.99999999999994,963.3333333333335) translate(93.49348958333333 25.0859375)"/><use xlink:href="#r" transform="matrix(1,0,0,1,435.99999999999994,963.3333333333335) translate(160.17100694444446 25.0859375)"/><path d="M568 909.27v22.1" stroke="#5e5e5e" stroke-width="2" fill="none"/><path d="M569 909.3h-2v-1.03h2z" stroke="#5e5e5e" stroke-width=".05" fill="#5e5e5e"/><path d="M568 946.63l-4.64-14.26h9.28z" stroke="#5e5e5e" stroke-width="2" fill="#5e5e5e"/><path d="M422.67 1059.7a6 6 0 0 1 6-6h278.66a6 6 0 0 1 6 6v56.44a6 6 0 0 1-6 6H428.67a6 6 0 0 1-6-6z" stroke="#5e5e5e" stroke-width="3" fill="#fff"/><use xlink:href="#p" transform="matrix(1,0,0,1,434.66666666666646,1065.6937882764655) translate(33.483723958333314 17.7734375)"/><use xlink:href="#s" transform="matrix(1,0,0,1,434.66666666666646,1065.6937882764655) translate(86.8257378472222 17.7734375)"/><use xlink:href="#r" transform="matrix(1,0,0,1,434.66666666666646,1065.6937882764655) translate(100.16124131944444 39.99565972222222)"/><path d="M569.33 1016.46v17.27" stroke="#5e5e5e" stroke-width="2" fill="none"/><path d="M570.33 1016.5h-2v-1.04h2z" stroke="#5e5e5e" stroke-width=".05" fill="#5e5e5e"/><path d="M569.33 1049l-4.63-14.27h9.27z" stroke="#5e5e5e" stroke-width="2" fill="#5e5e5e"/><path d="M982.33 665.28h-2v-30.24h2zm0-56.9h-2V487.53h2z" stroke="#5e5e5e" stroke-width=".05" fill="#5e5e5e"/><path d="M982.33 487.56h-2v-1.02h2z" fill="#5e5e5e"/><path d="M982.36 487.6h-2.05v-1.1h2.06zm-2-1.04v.98h1.95v-.98z" stroke="#5e5e5e" stroke-width=".05" fill="#5e5e5e"/><path d="M981.33 680.55l-4.63-14.27h9.27z" fill="#5e5e5e"/><path d="M981.33 683.8l-6-18.52h12.02zm-3.26-16.52l3.26 10.03 3.26-10.02z" stroke="#5e5e5e" stroke-width=".05" fill="#5e5e5e"/><use xlink:href="#k" transform="matrix(1,0,0,1,901.3203125,608.3749449423823) translate(0 21.328124999999996)"/><use xlink:href="#t" transform="matrix(1,0,0,1,901.3203125,608.3749449423823) translate(48.00781249999999 21.328124999999996)"/><path d="M836 748.28a6 6 0 0 1 6-6h278.67a6 6 0 0 1 6 6v56.44a6 6 0 0 1-6 6H842a6 6 0 0 1-6-6z" stroke="#5e5e5e" stroke-width="3" fill="#fff"/><use xlink:href="#u" transform="matrix(1,0,0,1,848,754.2764654418202) translate(20.148220486111086 29.0234375)"/><use xlink:href="#v" transform="matrix(1,0,0,1,848,754.2764654418202) translate(126.83224826388889 29.0234375)"/><path d="M836 858.36a6 6 0 0 1 6-6h278.67a6 6 0 0 1 6 6v56.44a6 6 0 0 1-6 6H842a6 6 0 0 1-6-6z" stroke="#5e5e5e" stroke-width="3" fill="#fff"/><use xlink:href="#w" transform="matrix(1,0,0,1,848,864.3604549431325) translate(53.48697916666666 17.7734375)"/><use xlink:href="#x" transform="matrix(1,0,0,1,848,864.3604549431325) translate(120.16449652777777 17.7734375)"/><use xlink:href="#y" transform="matrix(1,0,0,1,848,864.3604549431325) translate(73.49023437499999 39.99565972222222)"/><path d="M981.33 813.18v19.22" stroke="#5e5e5e" stroke-width="2" fill="none"/><path d="M982.33 813.2h-2v-1.02h2z" stroke="#5e5e5e" stroke-width=".05" fill="#5e5e5e"/><path d="M981.33 847.66l-4.63-14.26h9.27z" stroke="#5e5e5e" stroke-width="2" fill="#5e5e5e"/><path d="M981.33 923.27v8.1" stroke="#5e5e5e" stroke-width="2" fill="none"/><path d="M982.33 923.3h-2v-1.03h2z" stroke="#5e5e5e" stroke-width=".05" fill="#5e5e5e"/><path d="M981.33 946.63l-4.63-14.26h9.27z" stroke="#5e5e5e" stroke-width="2" fill="#5e5e5e"/><path d="M836 1068.86a6 6 0 0 1 6-6h278.67a6 6 0 0 1 6 6v56.44a6 6 0 0 1-6 6H842a6 6 0 0 1-6-6z" stroke="#5e5e5e" stroke-width="3" fill="#fff"/><use xlink:href="#z" transform="matrix(1,0,0,1,847.9999999999998,1074.8591426071744) translate(33.483723958333314 17.7734375)"/><use xlink:href="#A" transform="matrix(1,0,0,1,847.9999999999998,1074.8591426071744) translate(140.16775173611111 17.7734375)"/><use xlink:href="#B" transform="matrix(1,0,0,1,847.9999999999998,1074.8591426071744) translate(60.15473090277776 39.99565972222222)"/><path d="M981.33 1016.46v26.43" stroke="#5e5e5e" stroke-width="2" fill="none"/><path d="M982.33 1016.5h-2v-1.04h2z" stroke="#5e5e5e" stroke-width=".05" fill="#5e5e5e"/><path d="M981.33 1058.16l-4.63-14.27h9.27z" stroke="#5e5e5e" stroke-width="2" fill="#5e5e5e"/><path d="M836 957.33a6 6 0 0 1 6-6h278.67a6 6 0 0 1 6 6V1008a6 6 0 0 1-6 6H842a6 6 0 0 1-6-6z" stroke="#5e5e5e" stroke-width="3" fill="#fff"/><use xlink:href="#C" transform="matrix(1,0,0,1,848,963.3333333333335) translate(0.14496527777777146 25.0859375)"/><use xlink:href="#D" transform="matrix(1,0,0,1,848,963.3333333333335) translate(93.49348958333334 25.0859375)"/><use xlink:href="#y" transform="matrix(1,0,0,1,848,963.3333333333335) translate(146.83550347222223 25.0859375)"/><path d="M409.33 1330.6a6 6 0 0 1 6-6h308a6 6 0 0 1 6 6v207.24a6 6 0 0 1-6 6h-308a6 6 0 0 1-6-6z" fill="#fff"/><path d="M432.22 1324.66h11.88m11.88 0h11.88m11.9 0l11.87-.02m11.88 0h11.9m11.88 0h11.88m11.88 0h11.88m11.9 0l11.87-.02m11.87 0h11.88m11.88 0h11.9m11.87 0h11.88m11.88-.02h11.9m11.87 0h11.88m11.9 0h5.93l.94.06.92.22.86.36.8.5.72.6.6.72.5.8.36.88.22.9v5.8m0 11.56v11.57m0 11.56l.02 11.57m0 11.56v11.57m0 11.57v11.56m.02 11.57v11.56m0 11.56v11.57m0 11.56l.02 11.56m0 11.56v11.57m0 11.56v5.78l-.06.94-.22.9-.36.88-.5.8-.6.72-.72.6-.8.5-.87.37-.93.2-5.94.02m-11.88 0h-11.88m-11.9 0H670.8m-11.88 0h-11.88m-11.88.02h-11.9m-11.87 0h-11.9m-11.87 0h-11.9m-11.87 0h-11.88m-11.88 0h-11.9m-11.87 0l-11.88.02m-11.88 0H480.7m-11.9 0h-11.88m-11.88 0h-11.88m-11.9.02h-5.93l-.94-.08-.92-.2-.87-.38-.8-.5-.7-.6-.62-.7-.5-.82-.35-.87-.22-.92v-5.8m0-11.55v-11.57m0-11.56v-11.57m-.02-11.57v-11.56m0-11.57v-11.56m0-11.57l-.02-11.57m0-11.56v-11.57m0-11.56v-11.57m-.02-11.57v-11.56m0-11.57v-5.78l.07-.95.23-.9.36-.88.48-.8.6-.72.73-.6.8-.5.88-.37.9-.22h5.96" stroke="#147eba" stroke-width="3" fill="none"/><path d="M494 1351.55a6 6 0 0 1 6-6h138.67a6 6 0 0 1 6 6v137.33a6 6 0 0 1-6 6H500a6 6 0 0 1-6-6z" stroke="#000" stroke-opacity="0" stroke-width="3" fill-opacity="0"/><use xlink:href="#E" transform="matrix(1,0,0,1,494,1365.546191806753) translate(75.5 17.7734375)"/><use xlink:href="#F" transform="matrix(1,0,0,1,494,1365.546191806753) translate(75.5 39.99565972222222)"/><use xlink:href="#F" transform="matrix(1,0,0,1,494,1365.546191806753) translate(75.5 62.21788194444444)"/><use xlink:href="#F" transform="matrix(1,0,0,1,494,1365.546191806753) translate(75.5 84.44010416666666)"/><use xlink:href="#G" transform="matrix(1,0,0,1,494,1365.546191806753) translate(8.822482638888872 106.66232638888889)"/><use xlink:href="#H" transform="matrix(1,0,0,1,494,1365.546191806753) translate(48.82899305555556 128.88454861111111)"/><use xlink:href="#I" transform="matrix(1,0,0,1,494,1365.546191806753) translate(15.490234374999986 151.10677083333334)"/><path d="M528.58 1385.42v2.6l40.75 22.63 36.44-20.27v8.18L569.33 1419l-38.72-21.66-2.02 1.04v15.75l40.75 22.53 36.44-20.18v8.18L569.33 1445l-38.72-21.65-2.02 1.13v2.6l40.75 22.63 40.76-22.6v-15.67l-2.05-1.13-38.72 21.66-36.43-20.35v-8.1l36.43 20.2 40.76-22.62v-15.5l-2.05-1.03-38.72 21.66-34.56-19.4 34.56-19.22 28.45 15.84 2.53-1.3v-2.18l-30.97-17.23z" stroke="#000" stroke-opacity="0" fill="#ff3621"/><path d="M821.33 1330.6a6 6 0 0 1 6-6h308a6 6 0 0 1 6 6v207.24a6 6 0 0 1-6 6h-308a6 6 0 0 1-6-6z" fill="#fff"/><path d="M844.22 1324.66h11.88m11.88 0h11.88m11.9 0l11.87-.02m11.88 0h11.9m11.88 0h11.88m11.88 0h11.88m11.9 0l11.87-.02m11.87 0h11.88m11.88 0h11.9m11.87 0h11.88m11.88-.02h11.9m11.87 0h11.88m11.9 0h5.93l.94.06.92.22.86.36.8.5.72.6.6.72.5.8.36.88.22.9v5.8m0 11.56v11.57m0 11.56l.02 11.57m0 11.56v11.57m0 11.57v11.56m.02 11.57v11.56m0 11.56v11.57m0 11.56l.02 11.56m0 11.56v11.57m0 11.56v5.78l-.06.94-.22.9-.36.88-.5.8-.6.72-.72.6-.8.5-.87.37-.93.2-5.94.02m-11.88 0h-11.88m-11.9 0h-11.87m-11.88 0h-11.88m-11.88.02h-11.9m-11.87 0h-11.9m-11.87 0h-11.9m-11.87 0h-11.88m-11.88 0h-11.9m-11.87 0l-11.88.02m-11.88 0H892.7m-11.9 0h-11.88m-11.88 0h-11.88m-11.9.02h-5.93l-.94-.08-.92-.2-.87-.38-.8-.5-.7-.6-.62-.7-.5-.82-.35-.87-.22-.92v-5.8m0-11.55v-11.57m0-11.56v-11.57m-.02-11.57v-11.56m0-11.57v-11.56m0-11.57l-.02-11.57m0-11.56v-11.57m0-11.56v-11.57m-.02-11.57v-11.56m0-11.57v-5.78l.07-.95.23-.9.36-.88.48-.8.6-.72.73-.6.8-.5.88-.37.9-.22h5.96" stroke="#147eba" stroke-width="3" fill="none"/><path d="M906 1351.55a6 6 0 0 1 6-6h138.67a6 6 0 0 1 6 6v137.33a6 6 0 0 1-6 6H912a6 6 0 0 1-6-6z" stroke="#000" stroke-opacity="0" stroke-width="3" fill-opacity="0"/><g><use xlink:href="#E" transform="matrix(1,0,0,1,906,1365.546191806753) translate(75.5 17.7734375)"/><use xlink:href="#F" transform="matrix(1,0,0,1,906,1365.546191806753) translate(75.5 39.99565972222222)"/><use xlink:href="#F" transform="matrix(1,0,0,1,906,1365.546191806753) translate(75.5 62.21788194444444)"/><use xlink:href="#F" transform="matrix(1,0,0,1,906,1365.546191806753) translate(75.5 84.44010416666666)"/><use xlink:href="#G" transform="matrix(1,0,0,1,906,1365.546191806753) translate(8.822482638888872 106.66232638888889)"/><use xlink:href="#J" transform="matrix(1,0,0,1,906,1365.546191806753) translate(48.82899305555556 128.88454861111111)"/><use xlink:href="#I" transform="matrix(1,0,0,1,906,1365.546191806753) translate(15.490234374999986 151.10677083333334)"/></g><path d="M940.58 1385.42v2.6l40.75 22.63 36.44-20.27v8.18L981.33 1419l-38.72-21.66-2.02 1.04v15.75l40.75 22.53 36.44-20.18v8.18L981.33 1445l-38.72-21.65-2.02 1.13v2.6l40.75 22.63 40.76-22.6v-15.67l-2.05-1.13-38.72 21.66-36.43-20.35v-8.1l36.43 20.2 40.76-22.62v-15.5l-2.05-1.03-38.72 21.66-34.56-19.4 34.56-19.22 28.45 15.84 2.53-1.3v-2.18l-30.97-17.23z" stroke="#000" stroke-opacity="0" fill="#ff3621"/><path d="M424 1167.83a6 6 0 0 1 6-6h278.67a6 6 0 0 1 6 6v56.45a6 6 0 0 1-6 6H430a6 6 0 0 1-6-6z" stroke="#5e5e5e" stroke-width="3" fill="#fff"/><g><use xlink:href="#K" transform="matrix(1,0,0,1,435.99999999999994,1173.8320209973754) translate(33.483723958333314 17.7734375)"/><use xlink:href="#L" transform="matrix(1,0,0,1,435.99999999999994,1173.8320209973754) translate(126.83224826388889 17.7734375)"/><use xlink:href="#M" transform="matrix(1,0,0,1,435.99999999999994,1173.8320209973754) translate(86.82573784722221 39.99565972222222)"/></g><path d="M568 1124.6v16.78a.6.6 0 0 0 .6.6h.62" stroke="#5e5e5e" stroke-width="2" fill="none"/><path d="M569 1124.63h-2v-1.03h2z" stroke="#5e5e5e" stroke-width=".05" fill="#5e5e5e"/><path d="M569.3 1157.13l-4.7-14.23 9.26-.06z" stroke="#5e5e5e" stroke-width="2" fill="#5e5e5e"/><path d="M420.2 1087.92h-76.77a6 6 0 0 0-6 6v334.3a6 6 0 0 0 6 6h45.94" stroke="#5e5e5e" stroke-width="2" fill="none"/><path d="M421.2 1088.92h-1.02v-2h1.02z" stroke="#5e5e5e" stroke-width=".05" fill="#5e5e5e"/><path d="M404.63 1434.2l-14.26 4.65v-9.27z" stroke="#5e5e5e" stroke-width="2" fill="#5e5e5e"/><path d="M1129.13 776.5h47.67a6 6 0 0 1 6 6v645.7a6 6 0 0 1-6 6h-15.5" stroke="#5e5e5e" stroke-width="2" fill="none"/><path d="M1129.16 777.5h-1.03v-2h1.03z" stroke="#5e5e5e" stroke-width=".05" fill="#5e5e5e"/><path d="M1146.03 1434.2l14.27-4.62v9.27z" stroke="#5e5e5e" stroke-width="2" fill="#5e5e5e"/><path d="M1129.13 886.58h47.67a6 6 0 0 1 6 6v535.63a6 6 0 0 1-6 6h-15.5" stroke="#5e5e5e" stroke-width="2" fill="none"/><path d="M1129.16 887.58h-1.03v-2h1.03z" stroke="#5e5e5e" stroke-width=".05" fill="#5e5e5e"/><path d="M1146.03 1434.2l14.27-4.62v9.27z" stroke="#5e5e5e" stroke-width="2" fill="#5e5e5e"/><defs><path fill="#333" d="M237 0v-1349h191v1193h672V0H237" id="N"/><path fill="#333" d="M615-1102c343 0 484 203 482 560-1 347-147 562-488 562-336 0-475-219-479-562-4-349 156-560 485-560zm-8 989c240 0 301-180 301-429 0-245-55-427-290-427-236 0-299 181-299 427 0 243 61 429 288 429" id="O"/><path fill="#333" d="M631 20c-350 0-501-215-501-562 0-355 162-560 502-560 250 0 399 118 446 323l-192 14c-23-124-109-196-262-196-242 0-305 171-305 415 1 245 61 427 304 427 151 0 248-77 267-215l190 12C1039-107 883 20 631 20" id="P"/><path fill="#333" d="M1000-272c3 95 12 159 101 161 21 0 41-3 59-7V-6c-44 10-86 16-139 16-141 2-191-84-197-217h-6C748-76 648 20 446 20c-207 0-318-120-318-322 0-266 194-348 454-354l236-4c12-191-40-305-222-305-140 0-220 47-232 172l-188-17c33-204 181-292 423-292 255 0 401 118 401 364v466zm-683-27c0 109 63 184 175 182 166-3 259-96 306-217 24-65 20-120 20-200-232 7-501-28-501 235" id="Q"/><path fill="#333" d="M736-142h380V0H134v-142h422v-1200H267v-142h469v1342" id="R"/><g id="a"><use transform="matrix(0.010850694444444444,0,0,0.010850694444444444,0,0)" xlink:href="#N"/><use transform="matrix(0.010850694444444444,0,0,0.010850694444444444,13.335503472222221,0)" xlink:href="#O"/><use transform="matrix(0.010850694444444444,0,0,0.010850694444444444,26.671006944444443,0)" xlink:href="#P"/><use transform="matrix(0.010850694444444444,0,0,0.010850694444444444,40.006510416666664,0)" xlink:href="#Q"/><use transform="matrix(0.010850694444444444,0,0,0.010850694444444444,53.342013888888886,0)" xlink:href="#R"/></g><path fill="#333" d="M617-1102c355 0 481 238 477 599H322c5 222 84 388 301 388 144 0 244-59 284-166l158 45C1002-72 854 20 623 20c-342 0-490-220-490-568 0-346 151-554 484-554zm291 461c-18-192-90-328-289-328-194 0-287 128-295 328h584" id="S"/><path fill="#333" d="M706-1102c241 0 344 136 343 381V0H868v-695c1-168-57-273-220-268-190 6-283 138-283 336V0H185c-3-360 6-732-6-1082h170c4 54 7 126 8 185h3c63-121 164-204 346-205" id="T"/><path fill="#333" d="M715 0H502L69-1082h202c94 253 197 500 285 758 19 57 36 126 52 183 96-335 234-626 350-941h201" id="U"/><path fill="#333" d="M745-142h380V0H143v-142h422v-798H246v-142h499v940zM545-1292v-192h200v192H545" id="V"/><path fill="#333" d="M839-1102c70 0 148 7 206 17v167c-112-18-268-36-363 15-129 69-208 203-208 395V0H294c-10-367 32-789-52-1082h171c21 75 41 161 48 250h5c67-152 152-270 373-270" id="W"/><path fill="#333" d="M904-1102c199 0 220 177 220 381V0H956v-686c-3-114 0-215-60-264-70-33-125-4-158 71-26 56-39 140-39 252V0H531v-686c-3-114-1-215-61-264-78-41-136 24-157 84-24 69-39 159-39 259V0H105c-3-360 6-732-6-1082h149c6 50 3 123 8 175 36-100 83-195 216-195 135 0 166 79 196 196 42-105 93-196 236-196" id="X"/><path fill="#333" d="M682 16c-209 0-323-80-324-285v-671H190v-142h170l58-282h120v282h432v142H538v652c2 114 60 155 182 155 106 0 209-16 297-34v137C921-4 806 16 682 16" id="Y"/><g id="b"><use transform="matrix(0.010850694444444444,0,0,0.010850694444444444,0,0)" xlink:href="#S"/><use transform="matrix(0.010850694444444444,0,0,0.010850694444444444,13.335503472222221,0)" xlink:href="#T"/><use transform="matrix(0.010850694444444444,0,0,0.010850694444444444,26.671006944444443,0)" xlink:href="#U"/><use transform="matrix(0.010850694444444444,0,0,0.010850694444444444,40.006510416666664,0)" xlink:href="#V"/><use transform="matrix(0.010850694444444444,0,0,0.010850694444444444,53.342013888888886,0)" xlink:href="#W"/><use transform="matrix(0.010850694444444444,0,0,0.010850694444444444,66.67751736111111,0)" xlink:href="#O"/><use transform="matrix(0.010850694444444444,0,0,0.010850694444444444,80.01302083333334,0)" xlink:href="#T"/><use transform="matrix(0.010850694444444444,0,0,0.010850694444444444,93.34852430555557,0)" xlink:href="#X"/><use transform="matrix(0.010850694444444444,0,0,0.010850694444444444,106.6840277777778,0)" xlink:href="#S"/><use transform="matrix(0.010850694444444444,0,0,0.010850694444444444,120.01953125000003,0)" xlink:href="#T"/><use transform="matrix(0.010850694444444444,0,0,0.010850694444444444,133.35503472222226,0)" xlink:href="#Y"/></g><path fill="#333" d="M655-135c108 0 195-33 260-74v-336H622v-160h479v572C981-54 839 20 639 20c-388 0-526-306-526-701 0-406 129-689 529-689 261 0 392 137 461 331l-171 56c-47-131-122-231-288-231-281 0-330 245-330 533 0 179 28 314 84 407s142 139 257 139" id="Z"/><g id="c"><use transform="matrix(0.010850694444444444,0,0,0.010850694444444444,0,0)" xlink:href="#Z"/><use transform="matrix(0.010850694444444444,0,0,0.010850694444444444,13.335503472222221,0)" xlink:href="#V"/><use transform="matrix(0.010850694444444444,0,0,0.010850694444444444,26.671006944444443,0)" xlink:href="#Y"/></g><path fill="#333" d="M1121-976c0 225-142 341-344 379L1177 0H957L591-575H353V0H162v-1349h482c281 3 477 100 477 373zM633-726c181-1 296-73 296-247 0-149-101-223-304-223H353v470h280" id="aa"/><path fill="#333" d="M698-1104c312 3 392 244 392 558 0 315-82 566-392 566-169 0-277-65-331-184h-5c8 188 2 394 4 589H185V-858c0-76-1-156-6-224h175c6 52 9 120 10 178h4c58-122 150-202 330-200zm-49 991c225 0 255-203 255-433 0-225-32-419-253-419-236 0-285 192-285 441 0 237 53 411 283 411" id="ab"/><path fill="#333" d="M873-819c-18-114-119-146-250-146-163 0-245 50-245 151 0 151 170 148 294 185 182 54 388 94 388 320 0 240-189 325-439 329-245 4-410-69-454-268l159-31c24 133 136 168 295 165 144-2 270-31 270-171 0-164-195-160-331-202-167-52-350-87-350-299 0-218 173-315 413-313 220 2 373 77 412 260" id="ac"/><path fill="#333" d="M168 279c222 39 310-114 368-290L66-1082h192c120 299 249 590 362 896 115-301 235-597 351-896h190L705 0c-65 164-130 320-275 396-67 36-177 35-262 18V279" id="ad"/><g id="d"><use transform="matrix(0.010850694444444444,0,0,0.010850694444444444,0,0)" xlink:href="#aa"/><use transform="matrix(0.010850694444444444,0,0,0.010850694444444444,13.335503472222221,0)" xlink:href="#S"/><use transform="matrix(0.010850694444444444,0,0,0.010850694444444444,26.671006944444443,0)" xlink:href="#ab"/><use transform="matrix(0.010850694444444444,0,0,0.010850694444444444,40.006510416666664,0)" xlink:href="#O"/><use transform="matrix(0.010850694444444444,0,0,0.010850694444444444,53.342013888888886,0)" xlink:href="#ac"/><use transform="matrix(0.010850694444444444,0,0,0.010850694444444444,66.67751736111111,0)" xlink:href="#V"/><use transform="matrix(0.010850694444444444,0,0,0.010850694444444444,80.01302083333334,0)" xlink:href="#Y"/><use transform="matrix(0.010850694444444444,0,0,0.010850694444444444,93.34852430555557,0)" xlink:href="#O"/><use transform="matrix(0.010850694444444444,0,0,0.010850694444444444,106.6840277777778,0)" xlink:href="#W"/><use transform="matrix(0.010850694444444444,0,0,0.010850694444444444,120.01953125000003,0)" xlink:href="#ad"/></g><path fill="#333" d="M650-1214c-281 0-336 244-336 533 0 295 60 546 347 546 188 0 263-142 322-282l159 65C1058-155 935 20 659 20c-401 0-546-295-546-701 0-407 135-689 536-689 264 0 391 146 466 335l-168 65c-47-129-127-244-297-244" id="ae"/><path fill="#333" d="M202-1349h823v156H709v1037h316V0H202v-156h316v-1037H202v-156" id="af"/><g id="e"><use transform="matrix(0.010850694444444444,0,0,0.010850694444444444,0,0)" xlink:href="#ae"/><use transform="matrix(0.010850694444444444,0,0,0.010850694444444444,13.335503472222221,0)" xlink:href="#af"/></g><path fill="#333" d="M622-1349c296 4 497 117 497 404 0 282-193 424-485 431H353V0H162v-1349h460zm-15 684c195-3 320-88 320-277 0-184-129-255-328-254H353v531h254" id="ag"/><g id="f"><use transform="matrix(0.010850694444444444,0,0,0.010850694444444444,0,0)" xlink:href="#ag"/><use transform="matrix(0.010850694444444444,0,0,0.010850694444444444,13.335503472222221,0)" xlink:href="#V"/><use transform="matrix(0.010850694444444444,0,0,0.010850694444444444,26.671006944444443,0)" xlink:href="#ab"/><use transform="matrix(0.010850694444444444,0,0,0.010850694444444444,40.006510416666664,0)" xlink:href="#S"/><use transform="matrix(0.010850694444444444,0,0,0.010850694444444444,53.342013888888886,0)" xlink:href="#R"/><use transform="matrix(0.010850694444444444,0,0,0.010850694444444444,66.67751736111111,0)" xlink:href="#V"/><use transform="matrix(0.010850694444444444,0,0,0.010850694444444444,80.01302083333334,0)" xlink:href="#T"/><use transform="matrix(0.010850694444444444,0,0,0.010850694444444444,93.34852430555557,0)" xlink:href="#S"/></g><path fill="#333" d="M473-1349c438-1 655 221 652 661C1122-268 945-8 532 0H162v-1349h311zm42 1193c308-4 416-205 418-532 2-330-131-509-459-505H353v1037h162" id="ah"/><g id="g"><use transform="matrix(0.010850694444444444,0,0,0.010850694444444444,0,0)" xlink:href="#ae"/><use transform="matrix(0.010850694444444444,0,0,0.010850694444444444,13.335503472222221,0)" xlink:href="#ah"/></g><path fill="#333" d="M865-914c-3-187-2-380-2-570h180v1261c0 76 1 155 6 223H877c-8-49-9-116-10-174h-5C801-44 708 26 530 26c-135 0-234-46-297-139s-95-232-95-419c0-377 131-566 392-566 176 0 271 63 335 184zm-286-51c-222 0-255 197-255 427 0 229 31 425 253 425 237 0 286-195 286-441 0-238-52-411-284-411" id="ai"/><g id="h"><use transform="matrix(0.010850694444444444,0,0,0.010850694444444444,0,0)" xlink:href="#ab"/><use transform="matrix(0.010850694444444444,0,0,0.010850694444444444,13.335503472222221,0)" xlink:href="#W"/><use transform="matrix(0.010850694444444444,0,0,0.010850694444444444,26.671006944444443,0)" xlink:href="#O"/><use transform="matrix(0.010850694444444444,0,0,0.010850694444444444,40.006510416666664,0)" xlink:href="#U"/><use transform="matrix(0.010850694444444444,0,0,0.010850694444444444,53.342013888888886,0)" xlink:href="#V"/><use transform="matrix(0.010850694444444444,0,0,0.010850694444444444,66.67751736111111,0)" xlink:href="#ai"/><use transform="matrix(0.010850694444444444,0,0,0.010850694444444444,80.01302083333334,0)" xlink:href="#S"/><use transform="matrix(0.010850694444444444,0,0,0.010850694444444444,93.34852430555557,0)" xlink:href="#W"/></g><path fill="#333" d="M1048-32c-2 300-135 456-433 456-222-1-358-88-400-267l184-25c22 99 100 157 222 156 184-2 248-125 248-315 0-64 3-133-2-194C807-100 706-13 524-12c-306 0-381-228-381-537 0-318 85-550 400-550 164 0 271 83 325 202h3c1-60 3-134 12-185h171c-13 339-4 702-6 1050zM585-145c210-8 284-178 284-406 0-192-52-331-177-392-33-16-69-22-104-22-223 2-259 184-259 414 0 229 31 415 256 406" id="aj"/><g id="i"><use transform="matrix(0.010850694444444444,0,0,0.010850694444444444,0,0)" xlink:href="#aj"/><use transform="matrix(0.010850694444444444,0,0,0.010850694444444444,13.335503472222221,0)" xlink:href="#V"/><use transform="matrix(0.010850694444444444,0,0,0.010850694444444444,26.671006944444443,0)" xlink:href="#Y"/></g><path fill="#333" d="M528 20c-247 0-343-132-343-381v-721h180v686c-4 177 45 284 224 277 194-8 279-136 279-336v-627h181c3 360-6 732 6 1082H885c-4-54-7-126-8-185h-3C809-64 714 20 528 20" id="ak"/><path fill="#333" d="M648-963c-190 6-283 138-283 336V0H185v-1484h181c-2 197 6 404-9 587h3c62-120 159-205 339-205 242 0 351 135 350 381V0H868v-695c1-168-57-273-220-268" id="al"/><g id="j"><use transform="matrix(0.010850694444444444,0,0,0.010850694444444444,0,0)" xlink:href="#ab"/><use transform="matrix(0.010850694444444444,0,0,0.010850694444444444,13.335503472222221,0)" xlink:href="#ak"/><use transform="matrix(0.010850694444444444,0,0,0.010850694444444444,26.671006944444443,0)" xlink:href="#ac"/><use transform="matrix(0.010850694444444444,0,0,0.010850694444444444,40.006510416666664,0)" xlink:href="#al"/></g><path fill="#333" d="M616-1102c361 0 521 202 521 560 0 354-171 562-527 562C259 20 92-192 92-542c0-351 169-560 524-560zm-9 930c200-2 236-165 236-370 0-199-27-367-223-367-195 0-233 146-233 367 0 129 18 223 55 282s92 88 165 88" id="am"/><path fill="#333" d="M768-1103c247 0 336 167 336 416V0H824v-619c-3-164-24-273-171-273-164 0-229 142-229 312V0H143c-4-359 9-736-8-1082h268c7 63 12 146 13 215h4c67-145 160-236 348-236" id="an"/><g id="k"><use transform="matrix(0.013020833333333332,0,0,0.013020833333333332,0,0)" xlink:href="#am"/><use transform="matrix(0.013020833333333332,0,0,0.013020833333333332,16.002604166666664,0)" xlink:href="#an"/></g><path fill="#333" d="M427-171c3 195 2 397 2 596H148V-846c1-83-4-168-8-236h272c10 49 14 118 15 176h4c59-114 151-197 316-197 291 0 385 259 385 560 0 243-65 433-220 521-50 28-109 42-176 42-162-2-253-78-309-191zm69-661c-91 113-92 463-1 586 46 62 145 101 225 54 96-57 118-191 119-351 0-123-18-215-53-276-46-82-128-115-220-74-25 12-48 33-70 61" id="ao"/><path fill="#333" d="M471 20c-247 0-336-169-336-415v-687h281v607c4 148 31 285 172 285 152 0 207-150 207-312v-580h281c4 359-9 736 8 1082H816c-7-63-11-146-12-215h-5C736-76 644 20 471 20" id="ap"/><path fill="#333" d="M622-916c-112 2-200 14-200 111 0 90 89 101 168 121 234 58 514 77 514 368C1104-4 751 54 434 5 267-21 161-112 121-270l247-37c24 111 113 145 252 141 114-3 226-12 226-124 0-101-103-113-192-134-225-54-490-76-490-351 0-247 201-328 458-328 245 0 413 88 457 292l-249 26c-16-98-92-133-208-131" id="aq"/><path fill="#333" d="M424-1484c-2 206 5 424-8 618h4c67-145 160-234 348-236 251-3 335 167 336 416V0H824v-621c0-150-23-276-173-270-163 7-227 142-227 312V0H143v-1484h281" id="ar"/><g id="l"><use transform="matrix(0.013020833333333332,0,0,0.013020833333333332,0,0)" xlink:href="#ao"/><use transform="matrix(0.013020833333333332,0,0,0.013020833333333332,16.002604166666664,0)" xlink:href="#ap"/><use transform="matrix(0.013020833333333332,0,0,0.013020833333333332,32.00520833333333,0)" xlink:href="#aq"/><use transform="matrix(0.013020833333333332,0,0,0.013020833333333332,48.00781249999999,0)" xlink:href="#ar"/></g><g id="m"><use transform="matrix(0.010850694444444444,0,0,0.010850694444444444,0,0)" xlink:href="#af"/><use transform="matrix(0.010850694444444444,0,0,0.010850694444444444,13.335503472222221,0)" xlink:href="#T"/><use transform="matrix(0.010850694444444444,0,0,0.010850694444444444,26.671006944444443,0)" xlink:href="#ac"/><use transform="matrix(0.010850694444444444,0,0,0.010850694444444444,40.006510416666664,0)" xlink:href="#Y"/><use transform="matrix(0.010850694444444444,0,0,0.010850694444444444,53.342013888888886,0)" xlink:href="#Q"/><use transform="matrix(0.010850694444444444,0,0,0.010850694444444444,66.67751736111111,0)" xlink:href="#R"/><use transform="matrix(0.010850694444444444,0,0,0.010850694444444444,80.01302083333334,0)" xlink:href="#R"/></g><g id="n"><use transform="matrix(0.010850694444444444,0,0,0.010850694444444444,0,0)" xlink:href="#ae"/><use transform="matrix(0.010850694444444444,0,0,0.010850694444444444,13.335503472222221,0)" xlink:href="#af"/></g><g id="o"><use transform="matrix(0.010850694444444444,0,0,0.010850694444444444,0,0)" xlink:href="#ai"/><use transform="matrix(0.010850694444444444,0,0,0.010850694444444444,13.335503472222221,0)" xlink:href="#S"/><use transform="matrix(0.010850694444444444,0,0,0.010850694444444444,26.671006944444443,0)" xlink:href="#ab"/><use transform="matrix(0.010850694444444444,0,0,0.010850694444444444,40.006510416666664,0)" xlink:href="#S"/><use transform="matrix(0.010850694444444444,0,0,0.010850694444444444,53.342013888888886,0)" xlink:href="#T"/><use transform="matrix(0.010850694444444444,0,0,0.010850694444444444,66.67751736111111,0)" xlink:href="#ai"/><use transform="matrix(0.010850694444444444,0,0,0.010850694444444444,80.01302083333334,0)" xlink:href="#S"/><use transform="matrix(0.010850694444444444,0,0,0.010850694444444444,93.34852430555557,0)" xlink:href="#T"/><use transform="matrix(0.010850694444444444,0,0,0.010850694444444444,106.6840277777778,0)" xlink:href="#P"/><use transform="matrix(0.010850694444444444,0,0,0.010850694444444444,120.01953125000003,0)" xlink:href="#V"/><use transform="matrix(0.010850694444444444,0,0,0.010850694444444444,133.35503472222226,0)" xlink:href="#S"/><use transform="matrix(0.010850694444444444,0,0,0.010850694444444444,146.69053819444449,0)" xlink:href="#ac"/></g><g id="p"><use transform="matrix(0.010850694444444444,0,0,0.010850694444444444,0,0)" xlink:href="#aa"/><use transform="matrix(0.010850694444444444,0,0,0.010850694444444444,13.335503472222221,0)" xlink:href="#ak"/><use transform="matrix(0.010850694444444444,0,0,0.010850694444444444,26.671006944444443,0)" xlink:href="#T"/></g><g id="q"><use transform="matrix(0.010850694444444444,0,0,0.010850694444444444,0,0)" xlink:href="#ak"/><use transform="matrix(0.010850694444444444,0,0,0.010850694444444444,13.335503472222221,0)" xlink:href="#T"/><use transform="matrix(0.010850694444444444,0,0,0.010850694444444444,26.671006944444443,0)" xlink:href="#V"/><use transform="matrix(0.010850694444444444,0,0,0.010850694444444444,40.006510416666664,0)" xlink:href="#Y"/></g><g id="r"><use transform="matrix(0.010850694444444444,0,0,0.010850694444444444,0,0)" xlink:href="#Y"/><use transform="matrix(0.010850694444444444,0,0,0.010850694444444444,13.335503472222221,0)" xlink:href="#S"/><use transform="matrix(0.010850694444444444,0,0,0.010850694444444444,26.671006944444443,0)" xlink:href="#ac"/><use transform="matrix(0.010850694444444444,0,0,0.010850694444444444,40.006510416666664,0)" xlink:href="#Y"/><use transform="matrix(0.010850694444444444,0,0,0.010850694444444444,53.342013888888886,0)" xlink:href="#ac"/></g><g id="s"><use transform="matrix(0.010850694444444444,0,0,0.010850694444444444,0,0)" xlink:href="#V"/><use transform="matrix(0.010850694444444444,0,0,0.010850694444444444,13.335503472222221,0)" xlink:href="#T"/><use transform="matrix(0.010850694444444444,0,0,0.010850694444444444,26.671006944444443,0)" xlink:href="#Y"/><use transform="matrix(0.010850694444444444,0,0,0.010850694444444444,40.006510416666664,0)" xlink:href="#S"/><use transform="matrix(0.010850694444444444,0,0,0.010850694444444444,53.342013888888886,0)" xlink:href="#aj"/><use transform="matrix(0.010850694444444444,0,0,0.010850694444444444,66.67751736111111,0)" xlink:href="#W"/><use transform="matrix(0.010850694444444444,0,0,0.010850694444444444,80.01302083333334,0)" xlink:href="#Q"/><use transform="matrix(0.010850694444444444,0,0,0.010850694444444444,93.34852430555557,0)" xlink:href="#Y"/><use transform="matrix(0.010850694444444444,0,0,0.010850694444444444,106.6840277777778,0)" xlink:href="#V"/><use transform="matrix(0.010850694444444444,0,0,0.010850694444444444,120.01953125000003,0)" xlink:href="#O"/><use transform="matrix(0.010850694444444444,0,0,0.010850694444444444,133.35503472222226,0)" xlink:href="#T"/></g><path fill="#333" d="M875-1102c70 0 148 7 206 17v237c-110-17-267-37-359 15-123 69-192 207-192 395V0H250c-10-367 32-789-52-1082h271c19 69 36 149 46 228h4c52-151 151-250 356-248" id="as"/><path fill="#333" d="M1113-274C1038-96 884 20 626 20c-352 0-526-209-526-566 0-358 185-556 530-556 358 0 496 251 499 615H395c5 180 68 319 245 319 102 0 186-45 208-129zM857-663c-6-177-128-307-315-247-94 30-141 121-145 247h460" id="at"/><path fill="#333" d="M794-190h353V0H118v-190h395v-1104H223v-190h571v1294" id="au"/><path fill="#333" d="M775-193C708-75 621 20 439 20 226 20 106-93 106-306c0-251 170-341 417-346l223-4c4-143-12-264-148-264-103 0-141 58-150 153l-293-14c37-219 194-321 455-321 263 0 418 130 417 390v392c1 84 5 161 89 160 21 0 42-2 62-6v152c-57 15-108 27-180 26-145 0-202-73-217-205h-6zm-256 17c168 0 234-139 227-325-166 4-347-25-347 173 0 94 33 152 120 152" id="av"/><g id="t"><use transform="matrix(0.013020833333333332,0,0,0.013020833333333332,0,0)" xlink:href="#as"/><use transform="matrix(0.013020833333333332,0,0,0.013020833333333332,16.002604166666664,0)" xlink:href="#at"/><use transform="matrix(0.013020833333333332,0,0,0.013020833333333332,32.00520833333333,0)" xlink:href="#au"/><use transform="matrix(0.013020833333333332,0,0,0.013020833333333332,48.00781249999999,0)" xlink:href="#at"/><use transform="matrix(0.013020833333333332,0,0,0.013020833333333332,64.01041666666666,0)" xlink:href="#av"/><use transform="matrix(0.013020833333333332,0,0,0.013020833333333332,80.01302083333331,0)" xlink:href="#aq"/><use transform="matrix(0.013020833333333332,0,0,0.013020833333333332,96.01562499999997,0)" xlink:href="#at"/></g><g id="u"><use transform="matrix(0.010850694444444444,0,0,0.010850694444444444,0,0)" xlink:href="#ah"/><use transform="matrix(0.010850694444444444,0,0,0.010850694444444444,13.335503472222221,0)" xlink:href="#S"/><use transform="matrix(0.010850694444444444,0,0,0.010850694444444444,26.671006944444443,0)" xlink:href="#R"/><use transform="matrix(0.010850694444444444,0,0,0.010850694444444444,40.006510416666664,0)" xlink:href="#V"/><use transform="matrix(0.010850694444444444,0,0,0.010850694444444444,53.342013888888886,0)" xlink:href="#U"/><use transform="matrix(0.010850694444444444,0,0,0.010850694444444444,66.67751736111111,0)" xlink:href="#S"/><use transform="matrix(0.010850694444444444,0,0,0.010850694444444444,80.01302083333334,0)" xlink:href="#W"/></g><path fill="#333" d="M839-1335c-182-6-269 67-259 253h491v142H580V0H400v-940H138v-142h262c-15-293 132-408 418-402 94 2 200 7 281 21v145c-75-10-177-14-260-17" id="aw"/><g id="v"><use transform="matrix(0.010850694444444444,0,0,0.010850694444444444,0,0)" xlink:href="#Q"/><use transform="matrix(0.010850694444444444,0,0,0.010850694444444444,13.335503472222221,0)" xlink:href="#W"/><use transform="matrix(0.010850694444444444,0,0,0.010850694444444444,26.671006944444443,0)" xlink:href="#Y"/><use transform="matrix(0.010850694444444444,0,0,0.010850694444444444,40.006510416666664,0)" xlink:href="#V"/><use transform="matrix(0.010850694444444444,0,0,0.010850694444444444,53.342013888888886,0)" xlink:href="#aw"/><use transform="matrix(0.010850694444444444,0,0,0.010850694444444444,66.67751736111111,0)" xlink:href="#Q"/><use transform="matrix(0.010850694444444444,0,0,0.010850694444444444,80.01302083333334,0)" xlink:href="#P"/><use transform="matrix(0.010850694444444444,0,0,0.010850694444444444,93.34852430555557,0)" xlink:href="#Y"/><use transform="matrix(0.010850694444444444,0,0,0.010850694444444444,106.6840277777778,0)" xlink:href="#ac"/></g><path fill="#333" d="M614-1226c-167 1-283 53-283 213 0 183 186 193 334 234 230 63 463 120 463 409 0 286-219 387-518 390C309 23 131-98 79-338l185-37c34 165 149 248 351 246 184-2 324-58 324-238 0-203-207-221-372-266-210-57-422-111-422-377 0-267 201-356 470-360 279-5 430 101 480 324l-188 33c-28-141-121-215-293-213" id="ax"/><g id="w"><use transform="matrix(0.010850694444444444,0,0,0.010850694444444444,0,0)" xlink:href="#ax"/><use transform="matrix(0.010850694444444444,0,0,0.010850694444444444,13.335503472222221,0)" xlink:href="#Y"/><use transform="matrix(0.010850694444444444,0,0,0.010850694444444444,26.671006944444443,0)" xlink:href="#O"/><use transform="matrix(0.010850694444444444,0,0,0.010850694444444444,40.006510416666664,0)" xlink:href="#ab"/></g><g id="x"><use transform="matrix(0.010850694444444444,0,0,0.010850694444444444,0,0)" xlink:href="#P"/><use transform="matrix(0.010850694444444444,0,0,0.010850694444444444,13.335503472222221,0)" xlink:href="#ak"/><use transform="matrix(0.010850694444444444,0,0,0.010850694444444444,26.671006944444443,0)" xlink:href="#W"/><use transform="matrix(0.010850694444444444,0,0,0.010850694444444444,40.006510416666664,0)" xlink:href="#W"/><use transform="matrix(0.010850694444444444,0,0,0.010850694444444444,53.342013888888886,0)" xlink:href="#S"/><use transform="matrix(0.010850694444444444,0,0,0.010850694444444444,66.67751736111111,0)" xlink:href="#T"/><use transform="matrix(0.010850694444444444,0,0,0.010850694444444444,80.01302083333334,0)" xlink:href="#Y"/></g><path fill="#333" d="M1018 0H814c-67-224-138-444-200-673C552-442 476-224 407 0H204L21-1082h178c43 310 105 601 126 933 54-225 128-425 193-638h193c63 212 134 415 185 638 22-336 90-622 136-933h176" id="ay"/><path fill="#333" d="M914 0L548-499l-132 98V0H236v-1484h180v927l475-525h211L663-617 1125 0H914" id="az"/><g id="y"><use transform="matrix(0.010850694444444444,0,0,0.010850694444444444,0,0)" xlink:href="#ay"/><use transform="matrix(0.010850694444444444,0,0,0.010850694444444444,13.335503472222221,0)" xlink:href="#O"/><use transform="matrix(0.010850694444444444,0,0,0.010850694444444444,26.671006944444443,0)" xlink:href="#W"/><use transform="matrix(0.010850694444444444,0,0,0.010850694444444444,40.006510416666664,0)" xlink:href="#az"/><use transform="matrix(0.010850694444444444,0,0,0.010850694444444444,53.342013888888886,0)" xlink:href="#aw"/><use transform="matrix(0.010850694444444444,0,0,0.010850694444444444,66.67751736111111,0)" xlink:href="#R"/><use transform="matrix(0.010850694444444444,0,0,0.010850694444444444,80.01302083333334,0)" xlink:href="#O"/><use transform="matrix(0.010850694444444444,0,0,0.010850694444444444,93.34852430555557,0)" xlink:href="#ay"/><use transform="matrix(0.010850694444444444,0,0,0.010850694444444444,106.6840277777778,0)" xlink:href="#ac"/></g><g id="z"><use transform="matrix(0.010850694444444444,0,0,0.010850694444444444,0,0)" xlink:href="#ae"/><use transform="matrix(0.010850694444444444,0,0,0.010850694444444444,13.335503472222221,0)" xlink:href="#O"/><use transform="matrix(0.010850694444444444,0,0,0.010850694444444444,26.671006944444443,0)" xlink:href="#R"/><use transform="matrix(0.010850694444444444,0,0,0.010850694444444444,40.006510416666664,0)" xlink:href="#R"/><use transform="matrix(0.010850694444444444,0,0,0.010850694444444444,53.342013888888886,0)" xlink:href="#S"/><use transform="matrix(0.010850694444444444,0,0,0.010850694444444444,66.67751736111111,0)" xlink:href="#P"/><use transform="matrix(0.010850694444444444,0,0,0.010850694444444444,80.01302083333334,0)" xlink:href="#Y"/></g><g id="A"><use transform="matrix(0.010850694444444444,0,0,0.010850694444444444,0,0)" xlink:href="#W"/><use transform="matrix(0.010850694444444444,0,0,0.010850694444444444,13.335503472222221,0)" xlink:href="#S"/><use transform="matrix(0.010850694444444444,0,0,0.010850694444444444,26.671006944444443,0)" xlink:href="#R"/><use transform="matrix(0.010850694444444444,0,0,0.010850694444444444,40.006510416666664,0)" xlink:href="#S"/><use transform="matrix(0.010850694444444444,0,0,0.010850694444444444,53.342013888888886,0)" xlink:href="#Q"/><use transform="matrix(0.010850694444444444,0,0,0.010850694444444444,66.67751736111111,0)" xlink:href="#ac"/><use transform="matrix(0.010850694444444444,0,0,0.010850694444444444,80.01302083333334,0)" xlink:href="#S"/></g><g id="B"><use transform="matrix(0.010850694444444444,0,0,0.010850694444444444,0,0)" xlink:href="#V"/><use transform="matrix(0.010850694444444444,0,0,0.010850694444444444,13.335503472222221,0)" xlink:href="#T"/><use transform="matrix(0.010850694444444444,0,0,0.010850694444444444,26.671006944444443,0)" xlink:href="#aw"/><use transform="matrix(0.010850694444444444,0,0,0.010850694444444444,40.006510416666664,0)" xlink:href="#O"/><use transform="matrix(0.010850694444444444,0,0,0.010850694444444444,53.342013888888886,0)" xlink:href="#W"/><use transform="matrix(0.010850694444444444,0,0,0.010850694444444444,66.67751736111111,0)" xlink:href="#X"/><use transform="matrix(0.010850694444444444,0,0,0.010850694444444444,80.01302083333334,0)" xlink:href="#Q"/><use transform="matrix(0.010850694444444444,0,0,0.010850694444444444,93.34852430555557,0)" xlink:href="#Y"/><use transform="matrix(0.010850694444444444,0,0,0.010850694444444444,106.6840277777778,0)" xlink:href="#V"/><use transform="matrix(0.010850694444444444,0,0,0.010850694444444444,120.01953125000003,0)" xlink:href="#O"/><use transform="matrix(0.010850694444444444,0,0,0.010850694444444444,133.35503472222226,0)" xlink:href="#T"/></g><g id="C"><use transform="matrix(0.010850694444444444,0,0,0.010850694444444444,0,0)" xlink:href="#ah"/><use transform="matrix(0.010850694444444444,0,0,0.010850694444444444,13.335503472222221,0)" xlink:href="#S"/><use transform="matrix(0.010850694444444444,0,0,0.010850694444444444,26.671006944444443,0)" xlink:href="#ab"/><use transform="matrix(0.010850694444444444,0,0,0.010850694444444444,40.006510416666664,0)" xlink:href="#R"/><use transform="matrix(0.010850694444444444,0,0,0.010850694444444444,53.342013888888886,0)" xlink:href="#O"/><use transform="matrix(0.010850694444444444,0,0,0.010850694444444444,66.67751736111111,0)" xlink:href="#ad"/></g><g id="D"><use transform="matrix(0.010850694444444444,0,0,0.010850694444444444,0,0)" xlink:href="#T"/><use transform="matrix(0.010850694444444444,0,0,0.010850694444444444,13.335503472222221,0)" xlink:href="#S"/><use transform="matrix(0.010850694444444444,0,0,0.010850694444444444,26.671006944444443,0)" xlink:href="#ay"/></g><path fill="#333" d="M365-904c58-129 161-200 334-200 130 0 228 46 293 138s98 233 98 420c0 189-34 331-102 425S824 20 698 20c-170 0-275-64-336-184 0 55-3 116-9 164H179c5-68 6-147 6-223v-1261h180c-2 193 4 394-4 580h4zm283 791c221 0 256-197 256-427 0-229-34-425-254-425-236 0-285 195-285 441 0 237 53 411 283 411" id="aA"/><g id="G"><use transform="matrix(0.010850694444444444,0,0,0.010850694444444444,0,0)" xlink:href="#ah"/><use transform="matrix(0.010850694444444444,0,0,0.010850694444444444,13.335503472222221,0)" xlink:href="#Q"/><use transform="matrix(0.010850694444444444,0,0,0.010850694444444444,26.671006944444443,0)" xlink:href="#Y"/><use transform="matrix(0.010850694444444444,0,0,0.010850694444444444,40.006510416666664,0)" xlink:href="#Q"/><use transform="matrix(0.010850694444444444,0,0,0.010850694444444444,53.342013888888886,0)" xlink:href="#aA"/><use transform="matrix(0.010850694444444444,0,0,0.010850694444444444,66.67751736111111,0)" xlink:href="#W"/><use transform="matrix(0.010850694444444444,0,0,0.010850694444444444,80.01302083333334,0)" xlink:href="#V"/><use transform="matrix(0.010850694444444444,0,0,0.010850694444444444,93.34852430555557,0)" xlink:href="#P"/><use transform="matrix(0.010850694444444444,0,0,0.010850694444444444,106.6840277777778,0)" xlink:href="#az"/><use transform="matrix(0.010850694444444444,0,0,0.010850694444444444,120.01953125000003,0)" xlink:href="#ac"/></g><path fill="#333" d="M709-1193V0H519v-1193H76v-156h1076v156H709" id="aB"/><g id="H"><use transform="matrix(0.010850694444444444,0,0,0.010850694444444444,0,0)" xlink:href="#aB"/><use transform="matrix(0.010850694444444444,0,0,0.010850694444444444,13.335503472222221,0)" xlink:href="#S"/><use transform="matrix(0.010850694444444444,0,0,0.010850694444444444,26.671006944444443,0)" xlink:href="#ac"/><use transform="matrix(0.010850694444444444,0,0,0.010850694444444444,40.006510416666664,0)" xlink:href="#Y"/></g><g id="I"><use transform="matrix(0.010850694444444444,0,0,0.010850694444444444,0,0)" xlink:href="#ay"/><use transform="matrix(0.010850694444444444,0,0,0.010850694444444444,13.335503472222221,0)" xlink:href="#O"/><use transform="matrix(0.010850694444444444,0,0,0.010850694444444444,26.671006944444443,0)" xlink:href="#W"/><use transform="matrix(0.010850694444444444,0,0,0.010850694444444444,40.006510416666664,0)" xlink:href="#az"/><use transform="matrix(0.010850694444444444,0,0,0.010850694444444444,53.342013888888886,0)" xlink:href="#ac"/><use transform="matrix(0.010850694444444444,0,0,0.010850694444444444,66.67751736111111,0)" xlink:href="#ab"/><use transform="matrix(0.010850694444444444,0,0,0.010850694444444444,80.01302083333334,0)" xlink:href="#Q"/><use transform="matrix(0.010850694444444444,0,0,0.010850694444444444,93.34852430555557,0)" xlink:href="#P"/><use transform="matrix(0.010850694444444444,0,0,0.010850694444444444,106.6840277777778,0)" xlink:href="#S"/></g><g id="J"><use transform="matrix(0.010850694444444444,0,0,0.010850694444444444,0,0)" xlink:href="#ag"/><use transform="matrix(0.010850694444444444,0,0,0.010850694444444444,13.335503472222221,0)" xlink:href="#W"/><use transform="matrix(0.010850694444444444,0,0,0.010850694444444444,26.671006944444443,0)" xlink:href="#O"/><use transform="matrix(0.010850694444444444,0,0,0.010850694444444444,40.006510416666664,0)" xlink:href="#ai"/></g><g id="K"><use transform="matrix(0.010850694444444444,0,0,0.010850694444444444,0,0)" xlink:href="#aa"/><use transform="matrix(0.010850694444444444,0,0,0.010850694444444444,13.335503472222221,0)" xlink:href="#S"/><use transform="matrix(0.010850694444444444,0,0,0.010850694444444444,26.671006944444443,0)" xlink:href="#ab"/><use transform="matrix(0.010850694444444444,0,0,0.010850694444444444,40.006510416666664,0)" xlink:href="#O"/><use transform="matrix(0.010850694444444444,0,0,0.010850694444444444,53.342013888888886,0)" xlink:href="#W"/><use transform="matrix(0.010850694444444444,0,0,0.010850694444444444,66.67751736111111,0)" xlink:href="#Y"/></g><g id="L"><use transform="matrix(0.010850694444444444,0,0,0.010850694444444444,0,0)" xlink:href="#P"/><use transform="matrix(0.010850694444444444,0,0,0.010850694444444444,13.335503472222221,0)" xlink:href="#O"/><use transform="matrix(0.010850694444444444,0,0,0.010850694444444444,26.671006944444443,0)" xlink:href="#U"/><use transform="matrix(0.010850694444444444,0,0,0.010850694444444444,40.006510416666664,0)" xlink:href="#S"/><use transform="matrix(0.010850694444444444,0,0,0.010850694444444444,53.342013888888886,0)" xlink:href="#W"/><use transform="matrix(0.010850694444444444,0,0,0.010850694444444444,66.67751736111111,0)" xlink:href="#Q"/><use transform="matrix(0.010850694444444444,0,0,0.010850694444444444,80.01302083333334,0)" xlink:href="#aj"/><use transform="matrix(0.010850694444444444,0,0,0.010850694444444444,93.34852430555557,0)" xlink:href="#S"/></g><g id="M"><use transform="matrix(0.010850694444444444,0,0,0.010850694444444444,0,0)" xlink:href="#X"/><use transform="matrix(0.010850694444444444,0,0,0.010850694444444444,13.335503472222221,0)" xlink:href="#S"/><use transform="matrix(0.010850694444444444,0,0,0.010850694444444444,26.671006944444443,0)" xlink:href="#Y"/><use transform="matrix(0.010850694444444444,0,0,0.010850694444444444,40.006510416666664,0)" xlink:href="#W"/><use transform="matrix(0.010850694444444444,0,0,0.010850694444444444,53.342013888888886,0)" xlink:href="#V"/><use transform="matrix(0.010850694444444444,0,0,0.010850694444444444,66.67751736111111,0)" xlink:href="#P"/><use transform="matrix(0.010850694444444444,0,0,0.010850694444444444,80.01302083333334,0)" xlink:href="#ac"/></g></defs></g></svg>